<?xml version="1.0" encoding="UTF-8" standalone="no"?>
<!DOCTYPE svg PUBLIC "-//W3C//DTD SVG 1.1//EN" "http://www.w3.org/Graphics/SVG/1.1/DTD/svg11.dtd">
<svg width="100%" height="100%" viewBox="0 0 100 100" version="1.1" xmlns="http://www.w3.org/2000/svg" xmlns:xlink="http://www.w3.org/1999/xlink" xml:space="preserve" xmlns:serif="http://www.serif.com/" style="fill-rule:evenodd;clip-rule:evenodd;stroke-linejoin:round;stroke-miterlimit:2;">
    <g transform="matrix(0.938915,0,0,0.938915,2.73922,2.559)">
        <g transform="matrix(0.798798,0,0,0.798798,-0.786643,0.469647)">
            <path d="M6,104L82,104C83.097,104 84,103.097 84,102C84,100.903 83.097,100 82,100L6,100C4.843,99.92 3.949,98.918 4,97.76L4,30.24C3.949,29.082 4.843,28.08 6,28L82,28C83.097,28 84,27.097 84,26C84,24.903 83.097,24 82,24L6,24C2.647,24.076 -0.055,26.886 0,30.24L0,97.76C-0.055,101.114 2.647,103.924 6,104Z" style="fill-rule:nonzero;"/>
        </g>
        <g transform="matrix(0.798798,0,0,0.798798,-0.786643,0.469647)">
            <path d="M122,24L106,24C104.903,24 104,24.903 104,26C104,27.097 104.903,28 106,28L122,28C123.157,28.08 124.051,29.082 124,30.24L124,97.76C124.051,98.918 123.157,99.92 122,100L106,100C104.903,100 104,100.903 104,102C104,103.097 104.903,104 106,104L122,104C125.353,103.924 128.055,101.114 128,97.76L128,30.24C128.055,26.886 125.353,24.076 122,24Z" style="fill-rule:nonzero;"/>
        </g>
        <g transform="matrix(0.798798,0,0,0.798798,-0.786643,0.469647)">
            <path d="M92,16L92,112L80,112C78.903,112 78,112.903 78,114C78,115.097 78.903,116 80,116L108,116C109.097,116 110,115.097 110,114C110,112.903 109.097,112 108,112L96,112L96,16L108,16C109.097,16 110,15.097 110,14C110,12.903 109.097,12 108,12L80,12C78.903,12 78,12.903 78,14C78,15.097 78.903,16 80,16L92,16Z" style="fill-rule:nonzero;"/>
        </g>
        <g transform="matrix(0.798798,0,0,0.798798,-0.786643,0.469647)">
            <circle cx="30" cy="70" r="2"/>
        </g>
        <g transform="matrix(0.798798,0,0,0.798798,-0.786643,0.469647)">
            <circle cx="30" cy="54" r="2"/>
        </g>
        <g transform="matrix(0.798798,0,0,0.798798,-0.786643,0.469647)">
            <path d="M56.74,42.14C55.722,41.732 54.549,42.233 54.14,43.25L38.14,83.25C38.029,83.503 37.972,83.777 37.972,84.053C37.972,85.15 38.874,86.053 39.972,86.053C40.809,86.053 41.562,85.527 41.85,84.74L57.85,44.74C58.258,43.722 57.757,42.549 56.74,42.14Z" style="fill-rule:nonzero;"/>
        </g>
        <g transform="matrix(0.798798,0,0,0.798798,-0.786643,0.469647)">
            <path d="M55.26,85.86C56.278,86.268 57.451,85.767 57.86,84.75L73.86,44.75C73.94,44.53 73.982,44.298 73.982,44.063C73.982,42.966 73.079,42.063 71.982,42.063C71.189,42.063 70.468,42.534 70.15,43.26L54.15,83.26C53.742,84.278 54.243,85.451 55.26,85.86Z" style="fill-rule:nonzero;"/>
        </g>
    </g>
</svg>
