<?xml version="1.0" encoding="UTF-8" standalone="no"?>
<!DOCTYPE svg PUBLIC "-//W3C//DTD SVG 1.1//EN" "http://www.w3.org/Graphics/SVG/1.1/DTD/svg11.dtd">
<svg width="100%" height="100%" viewBox="0 0 100 100" version="1.1" xmlns="http://www.w3.org/2000/svg" xmlns:xlink="http://www.w3.org/1999/xlink" xml:space="preserve" xmlns:serif="http://www.serif.com/" style="fill-rule:evenodd;clip-rule:evenodd;stroke-linejoin:round;stroke-miterlimit:2;">
    <g transform="matrix(0.938915,0,0,0.938915,2.73922,2.559)">
        <g transform="matrix(1.26229,0,0,1.26229,-13.2323,-16.0291)">
            <path d="M33.428,39.482C33.98,39.482 34.428,39.929 34.428,40.482L34.428,41.643C34.428,42.196 33.98,42.643 33.428,42.643C32.876,42.643 32.428,42.196 32.428,41.643L32.428,40.482C32.428,39.929 32.876,39.482 33.428,39.482Z" style="fill-rule:nonzero;"/>
        </g>
        <g transform="matrix(1.26229,0,0,1.26229,-13.2323,-16.0291)">
            <path d="M28.595,39.482C29.147,39.482 29.595,39.929 29.595,40.482L29.595,41.643C29.595,42.196 29.147,42.643 28.595,42.643C28.043,42.643 27.595,42.196 27.595,41.643L27.595,40.482C27.595,39.929 28.043,39.482 28.595,39.482Z" style="fill-rule:nonzero;"/>
        </g>
        <g transform="matrix(1.26229,0,0,1.26229,-13.2323,-16.0291)">
            <path d="M33.428,44.231C33.98,44.231 34.428,44.678 34.428,45.231L34.428,46.393C34.428,46.946 33.98,47.393 33.428,47.393C32.876,47.393 32.428,46.946 32.428,46.393L32.428,45.231C32.428,44.678 32.876,44.231 33.428,44.231Z" style="fill-rule:nonzero;"/>
        </g>
        <g transform="matrix(1.26229,0,0,1.26229,-13.2323,-16.0291)">
            <path d="M28.595,44.231C29.147,44.231 29.595,44.678 29.595,45.231L29.595,46.393C29.595,46.946 29.147,47.393 28.595,47.393C28.043,47.393 27.595,46.946 27.595,46.393L27.595,45.231C27.595,44.678 28.043,44.231 28.595,44.231Z" style="fill-rule:nonzero;"/>
        </g>
        <g transform="matrix(1.26229,0,0,1.26229,-13.2323,-16.0291)">
            <path d="M33.428,48.982C33.98,48.982 34.428,49.429 34.428,49.982L34.428,51.143C34.428,51.696 33.98,52.143 33.428,52.143C32.876,52.143 32.428,51.696 32.428,51.143L32.428,49.982C32.428,49.429 32.876,48.982 33.428,48.982Z" style="fill-rule:nonzero;"/>
        </g>
        <g transform="matrix(1.26229,0,0,1.26229,-13.2323,-16.0291)">
            <path d="M28.595,48.982C29.147,48.982 29.595,49.429 29.595,49.982L29.595,51.143C29.595,51.696 29.147,52.143 28.595,52.143C28.043,52.143 27.595,51.696 27.595,51.143L27.595,49.982C27.595,49.429 28.043,48.982 28.595,48.982Z" style="fill-rule:nonzero;"/>
        </g>
        <g transform="matrix(1.26229,0,0,1.26229,-13.2323,-16.0291)">
            <path d="M33.428,53.837C33.98,53.837 34.428,54.284 34.428,54.837L34.428,55.999C34.428,56.552 33.98,56.999 33.428,56.999C32.876,56.999 32.428,56.552 32.428,55.999L32.428,54.837C32.428,54.284 32.876,53.837 33.428,53.837Z" style="fill-rule:nonzero;"/>
        </g>
        <g transform="matrix(1.26229,0,0,1.26229,-13.2323,-16.0291)">
            <path d="M28.595,53.837C29.147,53.837 29.595,54.284 29.595,54.837L29.595,55.999C29.595,56.552 29.147,56.999 28.595,56.999C28.043,56.999 27.595,56.552 27.595,55.999L27.595,54.837C27.595,54.284 28.043,53.837 28.595,53.837Z" style="fill-rule:nonzero;"/>
        </g>
        <g transform="matrix(1.26229,0,0,1.26229,-13.2323,-16.0291)">
            <path d="M33.428,58.588C33.98,58.588 34.428,59.035 34.428,59.588L34.428,60.749C34.428,61.302 33.98,61.749 33.428,61.749C32.876,61.749 32.428,61.302 32.428,60.749L32.428,59.588C32.428,59.035 32.876,58.588 33.428,58.588Z" style="fill-rule:nonzero;"/>
        </g>
        <g transform="matrix(1.26229,0,0,1.26229,-13.2323,-16.0291)">
            <path d="M28.595,58.588C29.147,58.588 29.595,59.035 29.595,59.588L29.595,60.749C29.595,61.302 29.147,61.749 28.595,61.749C28.043,61.749 27.595,61.302 27.595,60.749L27.595,59.588C27.595,59.035 28.043,58.588 28.595,58.588Z" style="fill-rule:nonzero;"/>
        </g>
        <g transform="matrix(1.26229,0,0,1.26229,-13.2323,-16.0291)">
            <path d="M54.564,46.573C54.012,46.573 53.564,46.126 53.564,45.573L53.564,43.459C53.564,42.906 54.012,42.459 54.564,42.459C55.116,42.459 55.564,42.906 55.564,43.459L55.564,45.573C55.564,46.126 55.116,46.573 54.564,46.573Z" style="fill-rule:nonzero;"/>
        </g>
        <g transform="matrix(1.26229,0,0,1.26229,-13.2323,-16.0291)">
            <path d="M50.359,46.573C49.807,46.573 49.359,46.126 49.359,45.573L49.359,43.459C49.359,42.906 49.807,42.459 50.359,42.459C50.911,42.459 51.359,42.906 51.359,43.459L51.359,45.573C51.359,46.126 50.911,46.573 50.359,46.573Z" style="fill-rule:nonzero;"/>
        </g>
        <g transform="matrix(1.26229,0,0,1.26229,-13.2323,-16.0291)">
            <path d="M46.155,46.573C45.603,46.573 45.155,46.126 45.155,45.573L45.155,43.459C45.155,42.906 45.603,42.459 46.155,42.459C46.707,42.459 47.155,42.906 47.155,43.459L47.155,45.573C47.155,46.126 46.707,46.573 46.155,46.573Z" style="fill-rule:nonzero;"/>
        </g>
        <g transform="matrix(1.26229,0,0,1.26229,-13.2323,-16.0291)">
            <path d="M54.564,55.218C54.012,55.218 53.564,54.771 53.564,54.218L53.564,52.105C53.564,51.552 54.012,51.105 54.564,51.105C55.116,51.105 55.564,51.552 55.564,52.105L55.564,54.218C55.564,54.771 55.116,55.218 54.564,55.218Z" style="fill-rule:nonzero;"/>
        </g>
        <g transform="matrix(1.26229,0,0,1.26229,-13.2323,-16.0291)">
            <path d="M50.359,55.218C49.807,55.218 49.359,54.771 49.359,54.218L49.359,52.105C49.359,51.552 49.807,51.105 50.359,51.105C50.911,51.105 51.359,51.552 51.359,52.105L51.359,54.218C51.359,54.771 50.911,55.218 50.359,55.218Z" style="fill-rule:nonzero;"/>
        </g>
        <g transform="matrix(1.26229,0,0,1.26229,-13.2323,-16.0291)">
            <path d="M46.155,55.218C45.603,55.218 45.155,54.771 45.155,54.218L45.155,52.105C45.155,51.552 45.603,51.105 46.155,51.105C46.707,51.105 47.155,51.552 47.155,52.105L47.155,54.218C47.155,54.771 46.707,55.218 46.155,55.218Z" style="fill-rule:nonzero;"/>
        </g>
        <g transform="matrix(1.26229,0,0,1.26229,-13.2323,-16.0291)">
            <path d="M54.564,63.863C54.012,63.863 53.564,63.416 53.564,62.863L53.564,60.749C53.564,60.196 54.012,59.749 54.564,59.749C55.116,59.749 55.564,60.196 55.564,60.749L55.564,62.863C55.564,63.416 55.116,63.863 54.564,63.863Z" style="fill-rule:nonzero;"/>
        </g>
        <g transform="matrix(1.26229,0,0,1.26229,-13.2323,-16.0291)">
            <path d="M50.359,63.863C49.807,63.863 49.359,63.416 49.359,62.863L49.359,60.749C49.359,60.196 49.807,59.749 50.359,59.749C50.911,59.749 51.359,60.196 51.359,60.749L51.359,62.863C51.359,63.416 50.911,63.863 50.359,63.863Z" style="fill-rule:nonzero;"/>
        </g>
        <g transform="matrix(1.26229,0,0,1.26229,-13.2323,-16.0291)">
            <path d="M46.155,63.863C45.603,63.863 45.155,63.416 45.155,62.863L45.155,60.749C45.155,60.196 45.603,59.749 46.155,59.749C46.707,59.749 47.155,60.196 47.155,60.749L47.155,62.863C47.155,63.416 46.707,63.863 46.155,63.863Z" style="fill-rule:nonzero;"/>
        </g>
        <g transform="matrix(1.26229,0,0,1.26229,-13.2323,-16.0291)">
            <path d="M54.564,72.508C54.012,72.508 53.564,72.061 53.564,71.508L53.564,69.395C53.564,68.842 54.012,68.395 54.564,68.395C55.116,68.395 55.564,68.842 55.564,69.395L55.564,71.508C55.564,72.061 55.116,72.508 54.564,72.508Z" style="fill-rule:nonzero;"/>
        </g>
        <g transform="matrix(1.26229,0,0,1.26229,-13.2323,-16.0291)">
            <path d="M50.359,72.508C49.807,72.508 49.359,72.061 49.359,71.508L49.359,69.395C49.359,68.842 49.807,68.395 50.359,68.395C50.911,68.395 51.359,68.842 51.359,69.395L51.359,71.508C51.359,72.061 50.911,72.508 50.359,72.508Z" style="fill-rule:nonzero;"/>
        </g>
        <g transform="matrix(1.26229,0,0,1.26229,-13.2323,-16.0291)">
            <path d="M46.155,72.508C45.603,72.508 45.155,72.061 45.155,71.508L45.155,69.395C45.155,68.842 45.603,68.395 46.155,68.395C46.707,68.395 47.155,68.842 47.155,69.395L47.155,71.508C47.155,72.061 46.707,72.508 46.155,72.508Z" style="fill-rule:nonzero;"/>
        </g>
        <g transform="matrix(1.26229,0,0,1.26229,-13.2323,-16.0291)">
            <path d="M54.564,81.153C54.012,81.153 53.564,80.706 53.564,80.153L53.564,78.039C53.564,77.486 54.012,77.039 54.564,77.039C55.116,77.039 55.564,77.486 55.564,78.039L55.564,80.153C55.564,80.706 55.116,81.153 54.564,81.153Z" style="fill-rule:nonzero;"/>
        </g>
        <g transform="matrix(1.26229,0,0,1.26229,-13.2323,-16.0291)">
            <path d="M50.359,81.153C49.807,81.153 49.359,80.706 49.359,80.153L49.359,78.039C49.359,77.486 49.807,77.039 50.359,77.039C50.911,77.039 51.359,77.486 51.359,78.039L51.359,80.153C51.359,80.706 50.911,81.153 50.359,81.153Z" style="fill-rule:nonzero;"/>
        </g>
        <g transform="matrix(1.26229,0,0,1.26229,-13.2323,-16.0291)">
            <path d="M46.155,81.153C45.603,81.153 45.155,80.706 45.155,80.153L45.155,78.039C45.155,77.486 45.603,77.039 46.155,77.039C46.707,77.039 47.155,77.486 47.155,78.039L47.155,80.153C47.155,80.706 46.707,81.153 46.155,81.153Z" style="fill-rule:nonzero;"/>
        </g>
        <g transform="matrix(1.26229,0,0,1.26229,-13.2323,-16.0291)">
            <path d="M9.859,88.072C9.859,88.625 10.307,89.072 10.859,89.072L89.859,89.072C90.411,89.072 90.859,88.625 90.859,88.072C90.859,87.519 90.411,87.072 89.859,87.072L85.123,87.072L85.123,84.338C86.796,83.856 88.031,82.329 88.031,80.502C88.031,79.186 87.385,78.026 86.402,77.295C87.003,76.689 87.376,75.855 87.376,74.936C87.376,73.086 85.872,71.582 84.022,71.582C82.172,71.582 80.668,73.086 80.668,74.936C80.668,75.856 81.041,76.689 81.642,77.295C80.659,78.026 80.013,79.186 80.013,80.502C80.013,82.403 81.345,83.99 83.122,84.4L83.122,87.072L77.643,87.072L77.643,58.352C77.643,57.799 77.195,57.352 76.643,57.352L72.935,57.352L72.935,31.106C72.935,30.553 72.487,30.106 71.935,30.106L69.359,30.106C69.188,28.149 68.01,26.501 66.663,25.696C66.533,23.531 65.117,21.562 63.608,21.562L62.56,21.562L62.56,15.758C62.56,15.205 62.112,14.758 61.56,14.758C61.008,14.758 60.56,15.205 60.56,15.758L60.56,21.562L59.51,21.562C58,21.562 56.585,23.531 56.455,25.696C55.108,26.501 53.931,28.149 53.76,30.106L50.36,30.106C49.808,30.106 49.36,30.553 49.36,31.106L49.36,35.649L40.747,35.649C40.195,35.649 39.747,36.096 39.747,36.649L39.747,64.402L38.158,64.402L38.158,35.801C38.158,35.248 37.71,34.801 37.158,34.801L24.868,34.801C24.316,34.801 23.868,35.248 23.868,35.801L23.868,64.402L21.779,64.402C21.227,64.402 20.779,64.849 20.779,65.402L20.779,87.073L15.848,87.073L15.848,84.44C17.482,83.961 18.686,82.466 18.686,80.679C18.686,79.395 18.059,78.264 17.105,77.545C17.686,76.95 18.047,76.14 18.047,75.245C18.047,73.427 16.568,71.947 14.749,71.947C12.93,71.947 11.452,73.426 11.452,75.245C11.452,76.14 11.813,76.951 12.394,77.545C11.44,78.264 10.813,79.395 10.813,80.679C10.813,82.538 12.112,84.091 13.848,84.501L13.848,87.072L10.86,87.072C10.307,87.072 9.859,87.52 9.859,88.072ZM85.376,74.936C85.376,75.682 84.769,76.29 84.022,76.29C83.275,76.29 82.668,75.683 82.668,74.936C82.668,74.189 83.275,73.582 84.022,73.582C84.769,73.582 85.376,74.19 85.376,74.936ZM84.023,82.511C82.916,82.511 82.014,81.61 82.014,80.502C82.014,79.394 82.915,78.494 84.023,78.494C85.131,78.494 86.031,79.394 86.031,80.502C86.031,81.61 85.13,82.511 84.023,82.511ZM64.582,25.164L58.538,25.164C58.771,24.228 59.325,23.619 59.55,23.558L63.61,23.562C63.804,23.62 64.351,24.229 64.582,25.164ZM67.336,30.106L55.784,30.106C56.023,28.407 57.429,27.165 58.172,27.165L64.948,27.165C65.691,27.164 67.097,28.407 67.336,30.106ZM60.313,82.901L75.645,82.901L75.645,87.072L60.313,87.072L60.313,82.901ZM60.313,76.805L75.645,76.805L75.645,80.902L60.313,80.902L60.313,76.805ZM60.313,70.709L75.645,70.709L75.645,74.805L60.313,74.805L60.313,70.709ZM60.313,64.901L75.645,64.901L75.645,68.709L60.313,68.709L60.313,64.901ZM60.313,59.352L75.645,59.352L75.645,62.902L60.313,62.902L60.313,59.352ZM59.313,35.649L51.359,35.649L51.359,32.106L70.937,32.106L70.937,57.352L60.313,57.352L60.313,36.649C60.313,36.096 59.865,35.649 59.313,35.649ZM41.746,37.649L58.313,37.649L58.313,87.073L41.746,87.073L41.746,37.649ZM36.156,64.401L25.866,64.401L25.866,36.801L36.156,36.801L36.156,64.401ZM27.699,78.464C27.699,76.35 29.375,74.63 31.435,74.63C33.495,74.63 35.171,76.35 35.171,78.464L35.171,87.072L27.698,87.072L27.698,78.464L27.699,78.464ZM22.778,66.401L39.746,66.401L39.746,87.072L37.172,87.072L37.172,78.464C37.172,75.247 34.599,72.63 31.436,72.63C28.273,72.63 25.7,75.247 25.7,78.464L25.7,87.072L22.778,87.072L22.778,66.401ZM16.047,75.244C16.047,75.96 15.465,76.542 14.749,76.542C14.034,76.542 13.452,75.96 13.452,75.244C13.452,74.528 14.034,73.946 14.749,73.946C15.465,73.946 16.047,74.528 16.047,75.244ZM14.749,82.615C13.681,82.615 12.812,81.746 12.812,80.678C12.812,79.61 13.681,78.741 14.749,78.741C15.817,78.741 16.686,79.61 16.686,80.678C16.686,81.746 15.817,82.615 14.749,82.615Z" style="fill-rule:nonzero;"/>
        </g>
        <g transform="matrix(1.26229,0,0,1.26229,-13.2323,-16.0291)">
            <path d="M63.164,35.619L67.979,35.619C68.531,35.619 68.979,36.066 68.979,36.619C68.979,37.172 68.531,37.619 67.979,37.619L63.164,37.619C62.612,37.619 62.164,37.172 62.164,36.619C62.164,36.066 62.612,35.619 63.164,35.619Z" style="fill-rule:nonzero;"/>
        </g>
        <g transform="matrix(1.26229,0,0,1.26229,-13.2323,-16.0291)">
            <path d="M63.164,39.998L67.979,39.998C68.531,39.998 68.979,40.445 68.979,40.998C68.979,41.551 68.531,41.998 67.979,41.998L63.164,41.998C62.612,41.998 62.164,41.551 62.164,40.998C62.164,40.445 62.612,39.998 63.164,39.998Z" style="fill-rule:nonzero;"/>
        </g>
        <g transform="matrix(1.26229,0,0,1.26229,-13.2323,-16.0291)">
            <path d="M63.164,44.377L67.979,44.377C68.531,44.377 68.979,44.824 68.979,45.377C68.979,45.93 68.531,46.377 67.979,46.377L63.164,46.377C62.612,46.377 62.164,45.93 62.164,45.377C62.164,44.824 62.612,44.377 63.164,44.377Z" style="fill-rule:nonzero;"/>
        </g>
        <g transform="matrix(1.26229,0,0,1.26229,-13.2323,-16.0291)">
            <path d="M63.164,48.756L67.979,48.756C68.531,48.756 68.979,49.203 68.979,49.756C68.979,50.309 68.531,50.756 67.979,50.756L63.164,50.756C62.612,50.756 62.164,50.309 62.164,49.756C62.164,49.203 62.612,48.756 63.164,48.756Z" style="fill-rule:nonzero;"/>
        </g>
        <g transform="matrix(1.26229,0,0,1.26229,-13.2323,-16.0291)">
            <path d="M63.164,53.136L67.979,53.136C68.531,53.136 68.979,53.583 68.979,54.136C68.979,54.689 68.531,55.136 67.979,55.136L63.164,55.136C62.612,55.136 62.164,54.689 62.164,54.136C62.164,53.583 62.612,53.136 63.164,53.136Z" style="fill-rule:nonzero;"/>
        </g>
    </g>
</svg>
