<?xml version="1.0" encoding="UTF-8" standalone="no"?>
<!DOCTYPE svg PUBLIC "-//W3C//DTD SVG 1.1//EN" "http://www.w3.org/Graphics/SVG/1.1/DTD/svg11.dtd">
<svg width="100%" height="100%" viewBox="0 0 100 100" version="1.1" xmlns="http://www.w3.org/2000/svg" xmlns:xlink="http://www.w3.org/1999/xlink" xml:space="preserve" xmlns:serif="http://www.serif.com/" style="fill-rule:evenodd;clip-rule:evenodd;stroke-linejoin:round;stroke-miterlimit:2;">
    <g transform="matrix(0.938915,0,0,0.938915,2.73922,2.559)">
        <g transform="matrix(1.55728,0,0,1.55728,-27.722,-27.2527)">
            <path d="M71.199,62.968L71.199,56.971C71.199,56.418 70.752,55.971 70.199,55.971L65.328,55.971C64.775,55.971 64.328,56.418 64.328,56.971L64.328,62.968C64.328,63.521 64.775,63.968 65.328,63.968L70.199,63.968C70.752,63.968 71.199,63.521 71.199,62.968ZM69.199,61.968L66.328,61.968L66.328,57.971L69.199,57.971L69.199,61.968Z" style="fill-rule:nonzero;"/>
        </g>
        <g transform="matrix(1.55728,0,0,1.55728,-27.722,-27.2527)">
            <path d="M34.761,55.971L29.89,55.971C29.337,55.971 28.89,56.418 28.89,56.971L28.89,62.968C28.89,63.521 29.337,63.968 29.89,63.968L34.761,63.968C35.314,63.968 35.761,63.521 35.761,62.968L35.761,56.971C35.761,56.418 35.313,55.971 34.761,55.971ZM33.761,61.968L30.89,61.968L30.89,57.971L33.761,57.971L33.761,61.968Z" style="fill-rule:nonzero;"/>
        </g>
        <g transform="matrix(1.55728,0,0,1.55728,-27.722,-27.2527)">
            <circle cx="51.461" cy="67.351" r="0.826"/>
        </g>
        <g transform="matrix(1.55728,0,0,1.55728,-27.722,-27.2527)">
            <path d="M80.887,40.666C81.212,40.221 81.116,39.595 80.669,39.269L50.983,17.565C50.631,17.309 50.155,17.309 49.803,17.565L20.118,39.269C19.672,39.595 19.575,40.221 19.9,40.666C20.096,40.935 20.4,41.076 20.709,41.076C20.914,41.076 21.12,41.014 21.298,40.884L23.797,39.057L23.797,81.287C23.797,81.84 24.244,82.287 24.797,82.287L75.455,82.287C76.008,82.287 76.455,81.84 76.455,81.287L76.455,38.665L79.489,40.883C79.935,41.209 80.56,41.113 80.887,40.666ZM25.797,38.121L74.455,38.121L74.455,66.887L61.359,66.887C61.355,66.887 61.352,66.889 61.348,66.889L61.348,52.294L63.842,54.117C64.289,54.443 64.913,54.346 65.239,53.899C65.564,53.454 65.468,52.828 65.021,52.502L50.716,42.043C50.364,41.787 49.888,41.787 49.536,42.043L35.229,52.502C34.783,52.828 34.686,53.454 35.011,53.899C35.207,54.168 35.511,54.309 35.82,54.309C36.025,54.309 36.231,54.247 36.409,54.117L38.902,52.294L38.902,66.886L25.797,66.886L25.797,38.121ZM70.681,68.887L70.681,80.287L68.764,80.287L68.764,68.887L70.681,68.887ZM66.764,80.287L64.847,80.287L64.847,68.887L66.764,68.887L66.764,80.287ZM62.847,80.287L61.349,80.287L61.349,68.885C61.353,68.885 61.356,68.887 61.36,68.887L62.847,68.887L62.847,80.287ZM59.349,50.832L59.349,76.692L55.92,76.692L55.92,56.358C55.92,55.805 55.473,55.358 54.92,55.358L45.332,55.358C44.779,55.358 44.332,55.805 44.332,56.358L44.332,76.691L40.902,76.691L40.902,50.832L50.126,44.089L59.349,50.832ZM46.332,57.358L53.92,57.358L53.92,76.691L46.332,76.691L46.332,57.358ZM59.349,80.287L40.902,80.287L40.902,78.691L59.348,78.691L59.348,80.287L59.349,80.287ZM38.902,80.287L37.242,80.287L37.242,68.887L38.902,68.887L38.902,80.287ZM35.242,80.287L33.325,80.287L33.325,68.887L35.242,68.887L35.242,80.287ZM31.325,80.287L29.409,80.287L29.409,68.887L31.325,68.887L31.325,80.287ZM74.455,80.287L72.681,80.287L72.681,68.887L74.455,68.887L74.455,80.287ZM25.797,80.287L25.797,68.887L27.409,68.887L27.409,80.287L25.797,80.287ZM72.975,36.121L27.812,36.121L50.394,19.611L72.975,36.121Z" style="fill-rule:nonzero;"/>
        </g>
    </g>
</svg>
