<?xml version="1.0" encoding="UTF-8" standalone="no"?>
<!DOCTYPE svg PUBLIC "-//W3C//DTD SVG 1.1//EN" "http://www.w3.org/Graphics/SVG/1.1/DTD/svg11.dtd">
<svg width="100%" height="100%" viewBox="0 0 100 100" version="1.1" xmlns="http://www.w3.org/2000/svg" xmlns:xlink="http://www.w3.org/1999/xlink" xml:space="preserve" xmlns:serif="http://www.serif.com/" style="fill-rule:evenodd;clip-rule:evenodd;stroke-linejoin:round;stroke-miterlimit:2;">
    <g transform="matrix(0.938915,0,0,0.938915,2.73922,2.559)">
        <g transform="matrix(1.23813,0,0,1.23813,-11.0385,-10.8466)">
            <path d="M66.896,65.833C67.448,65.833 67.896,65.385 67.896,64.833L67.896,60.136C67.896,59.584 67.448,59.136 66.896,59.136C66.344,59.136 65.896,59.584 65.896,60.136L65.896,64.833C65.896,65.386 66.343,65.833 66.896,65.833Z" style="fill-rule:nonzero;"/>
        </g>
        <g transform="matrix(1.23813,0,0,1.23813,-11.0385,-10.8466)">
            <path d="M66.896,56.145C67.448,56.145 67.896,55.697 67.896,55.145L67.896,50.448C67.896,49.896 67.448,49.448 66.896,49.448C66.344,49.448 65.896,49.896 65.896,50.448L65.896,55.145C65.896,55.697 66.343,56.145 66.896,56.145Z" style="fill-rule:nonzero;"/>
        </g>
        <g transform="matrix(1.23813,0,0,1.23813,-11.0385,-10.8466)">
            <path d="M66.896,46.457C67.448,46.457 67.896,46.009 67.896,45.457L67.896,40.76C67.896,40.208 67.448,39.76 66.896,39.76C66.344,39.76 65.896,40.208 65.896,40.76L65.896,45.457C65.896,46.009 66.343,46.457 66.896,46.457Z" style="fill-rule:nonzero;"/>
        </g>
        <g transform="matrix(1.23813,0,0,1.23813,-11.0385,-10.8466)">
            <path d="M61.335,65.833C61.887,65.833 62.335,65.385 62.335,64.833L62.335,60.136C62.335,59.584 61.887,59.136 61.335,59.136C60.783,59.136 60.335,59.584 60.335,60.136L60.335,64.833C60.335,65.386 60.783,65.833 61.335,65.833Z" style="fill-rule:nonzero;"/>
        </g>
        <g transform="matrix(1.23813,0,0,1.23813,-11.0385,-10.8466)">
            <path d="M61.335,56.145C61.887,56.145 62.335,55.697 62.335,55.145L62.335,50.448C62.335,49.896 61.887,49.448 61.335,49.448C60.783,49.448 60.335,49.896 60.335,50.448L60.335,55.145C60.335,55.697 60.783,56.145 61.335,56.145Z" style="fill-rule:nonzero;"/>
        </g>
        <g transform="matrix(1.23813,0,0,1.23813,-11.0385,-10.8466)">
            <path d="M61.335,46.457C61.887,46.457 62.335,46.009 62.335,45.457L62.335,40.76C62.335,40.208 61.887,39.76 61.335,39.76C60.783,39.76 60.335,40.208 60.335,40.76L60.335,45.457C60.335,46.009 60.783,46.457 61.335,46.457Z" style="fill-rule:nonzero;"/>
        </g>
        <g transform="matrix(1.23813,0,0,1.23813,-11.0385,-10.8466)">
            <path d="M55.774,65.833C56.326,65.833 56.774,65.385 56.774,64.833L56.774,60.136C56.774,59.584 56.326,59.136 55.774,59.136C55.222,59.136 54.774,59.584 54.774,60.136L54.774,64.833C54.774,65.386 55.222,65.833 55.774,65.833Z" style="fill-rule:nonzero;"/>
        </g>
        <g transform="matrix(1.23813,0,0,1.23813,-11.0385,-10.8466)">
            <path d="M55.774,56.145C56.326,56.145 56.774,55.697 56.774,55.145L56.774,50.448C56.774,49.896 56.326,49.448 55.774,49.448C55.222,49.448 54.774,49.896 54.774,50.448L54.774,55.145C54.774,55.697 55.222,56.145 55.774,56.145Z" style="fill-rule:nonzero;"/>
        </g>
        <g transform="matrix(1.23813,0,0,1.23813,-11.0385,-10.8466)">
            <path d="M55.774,46.457C56.326,46.457 56.774,46.009 56.774,45.457L56.774,40.76C56.774,40.208 56.326,39.76 55.774,39.76C55.222,39.76 54.774,40.208 54.774,40.76L54.774,45.457C54.774,46.009 55.222,46.457 55.774,46.457Z" style="fill-rule:nonzero;"/>
        </g>
        <g transform="matrix(1.23813,0,0,1.23813,-11.0385,-10.8466)">
            <path d="M50.214,65.833C50.766,65.833 51.214,65.385 51.214,64.833L51.214,60.136C51.214,59.584 50.766,59.136 50.214,59.136C49.662,59.136 49.214,59.584 49.214,60.136L49.214,64.833C49.214,65.386 49.662,65.833 50.214,65.833Z" style="fill-rule:nonzero;"/>
        </g>
        <g transform="matrix(1.23813,0,0,1.23813,-11.0385,-10.8466)">
            <path d="M50.214,56.145C50.766,56.145 51.214,55.697 51.214,55.145L51.214,50.448C51.214,49.896 50.766,49.448 50.214,49.448C49.662,49.448 49.214,49.896 49.214,50.448L49.214,55.145C49.214,55.697 49.662,56.145 50.214,56.145Z" style="fill-rule:nonzero;"/>
        </g>
        <g transform="matrix(1.23813,0,0,1.23813,-11.0385,-10.8466)">
            <path d="M50.214,46.457C50.766,46.457 51.214,46.009 51.214,45.457L51.214,40.76C51.214,40.208 50.766,39.76 50.214,39.76C49.662,39.76 49.214,40.208 49.214,40.76L49.214,45.457C49.214,46.009 49.662,46.457 50.214,46.457Z" style="fill-rule:nonzero;"/>
        </g>
        <g transform="matrix(1.23813,0,0,1.23813,-11.0385,-10.8466)">
            <path d="M44.653,65.833C45.205,65.833 45.653,65.385 45.653,64.833L45.653,60.136C45.653,59.584 45.205,59.136 44.653,59.136C44.101,59.136 43.653,59.584 43.653,60.136L43.653,64.833C43.653,65.386 44.101,65.833 44.653,65.833Z" style="fill-rule:nonzero;"/>
        </g>
        <g transform="matrix(1.23813,0,0,1.23813,-11.0385,-10.8466)">
            <path d="M44.653,56.145C45.205,56.145 45.653,55.697 45.653,55.145L45.653,50.448C45.653,49.896 45.205,49.448 44.653,49.448C44.101,49.448 43.653,49.896 43.653,50.448L43.653,55.145C43.653,55.697 44.101,56.145 44.653,56.145Z" style="fill-rule:nonzero;"/>
        </g>
        <g transform="matrix(1.23813,0,0,1.23813,-11.0385,-10.8466)">
            <path d="M44.653,46.457C45.205,46.457 45.653,46.009 45.653,45.457L45.653,40.76C45.653,40.208 45.205,39.76 44.653,39.76C44.101,39.76 43.653,40.208 43.653,40.76L43.653,45.457C43.653,46.009 44.101,46.457 44.653,46.457Z" style="fill-rule:nonzero;"/>
        </g>
        <g transform="matrix(1.23813,0,0,1.23813,-11.0385,-10.8466)">
            <path d="M61.604,15.364C61.052,15.364 60.604,15.812 60.604,16.364L60.604,20.042C60.604,20.594 61.052,21.042 61.604,21.042C62.156,21.042 62.604,20.594 62.604,20.042L62.604,16.364C62.604,15.812 62.157,15.364 61.604,15.364Z" style="fill-rule:nonzero;"/>
        </g>
        <g transform="matrix(1.23813,0,0,1.23813,-11.0385,-10.8466)">
            <path d="M57.104,15.364C56.552,15.364 56.104,15.812 56.104,16.364L56.104,20.042C56.104,20.594 56.552,21.042 57.104,21.042C57.656,21.042 58.104,20.594 58.104,20.042L58.104,16.364C58.104,15.812 57.656,15.364 57.104,15.364Z" style="fill-rule:nonzero;"/>
        </g>
        <g transform="matrix(1.23813,0,0,1.23813,-11.0385,-10.8466)">
            <path d="M52.603,15.364C52.051,15.364 51.603,15.812 51.603,16.364L51.603,20.042C51.603,20.594 52.051,21.042 52.603,21.042C53.155,21.042 53.603,20.594 53.603,20.042L53.603,16.364C53.603,15.812 53.155,15.364 52.603,15.364Z" style="fill-rule:nonzero;"/>
        </g>
        <g transform="matrix(1.23813,0,0,1.23813,-11.0385,-10.8466)">
            <path d="M48.103,15.364C47.551,15.364 47.103,15.812 47.103,16.364L47.103,20.042C47.103,20.594 47.551,21.042 48.103,21.042C48.655,21.042 49.103,20.594 49.103,20.042L49.103,16.364C49.103,15.812 48.655,15.364 48.103,15.364Z" style="fill-rule:nonzero;"/>
        </g>
        <g transform="matrix(1.23813,0,0,1.23813,-11.0385,-10.8466)">
            <path d="M43.602,15.364C43.05,15.364 42.602,15.812 42.602,16.364L42.602,20.042C42.602,20.594 43.05,21.042 43.602,21.042C44.154,21.042 44.602,20.594 44.602,20.042L44.602,16.364C44.602,15.812 44.154,15.364 43.602,15.364Z" style="fill-rule:nonzero;"/>
        </g>
        <g transform="matrix(1.23813,0,0,1.23813,-11.0385,-10.8466)">
            <path d="M39.101,15.364C38.549,15.364 38.101,15.812 38.101,16.364L38.101,20.042C38.101,20.594 38.549,21.042 39.101,21.042C39.653,21.042 40.101,20.594 40.101,20.042L40.101,16.364C40.101,15.812 39.653,15.364 39.101,15.364Z" style="fill-rule:nonzero;"/>
        </g>
        <g transform="matrix(1.23813,0,0,1.23813,-11.0385,-10.8466)">
            <path d="M61.604,24.154C61.052,24.154 60.604,24.602 60.604,25.154L60.604,28.832C60.604,29.384 61.052,29.832 61.604,29.832C62.156,29.832 62.604,29.384 62.604,28.832L62.604,25.154C62.604,24.602 62.157,24.154 61.604,24.154Z" style="fill-rule:nonzero;"/>
        </g>
        <g transform="matrix(1.23813,0,0,1.23813,-11.0385,-10.8466)">
            <path d="M57.104,24.154C56.552,24.154 56.104,24.602 56.104,25.154L56.104,28.832C56.104,29.384 56.552,29.832 57.104,29.832C57.656,29.832 58.104,29.384 58.104,28.832L58.104,25.154C58.104,24.602 57.656,24.154 57.104,24.154Z" style="fill-rule:nonzero;"/>
        </g>
        <g transform="matrix(1.23813,0,0,1.23813,-11.0385,-10.8466)">
            <path d="M52.603,24.154C52.051,24.154 51.603,24.602 51.603,25.154L51.603,28.832C51.603,29.384 52.051,29.832 52.603,29.832C53.155,29.832 53.603,29.384 53.603,28.832L53.603,25.154C53.603,24.602 53.155,24.154 52.603,24.154Z" style="fill-rule:nonzero;"/>
        </g>
        <g transform="matrix(1.23813,0,0,1.23813,-11.0385,-10.8466)">
            <path d="M48.103,24.154C47.551,24.154 47.103,24.602 47.103,25.154L47.103,28.832C47.103,29.384 47.551,29.832 48.103,29.832C48.655,29.832 49.103,29.384 49.103,28.832L49.103,25.154C49.103,24.602 48.655,24.154 48.103,24.154Z" style="fill-rule:nonzero;"/>
        </g>
        <g transform="matrix(1.23813,0,0,1.23813,-11.0385,-10.8466)">
            <path d="M43.602,24.154C43.05,24.154 42.602,24.602 42.602,25.154L42.602,28.832C42.602,29.384 43.05,29.832 43.602,29.832C44.154,29.832 44.602,29.384 44.602,28.832L44.602,25.154C44.602,24.602 44.154,24.154 43.602,24.154Z" style="fill-rule:nonzero;"/>
        </g>
        <g transform="matrix(1.23813,0,0,1.23813,-11.0385,-10.8466)">
            <path d="M39.101,24.154C38.549,24.154 38.101,24.602 38.101,25.154L38.101,28.832C38.101,29.384 38.549,29.832 39.101,29.832C39.653,29.832 40.101,29.384 40.101,28.832L40.101,25.154C40.101,24.602 39.653,24.154 39.101,24.154Z" style="fill-rule:nonzero;"/>
        </g>
        <g transform="matrix(1.23813,0,0,1.23813,-11.0385,-10.8466)">
            <path d="M39.092,65.833C39.644,65.833 40.092,65.385 40.092,64.833L40.092,60.136C40.092,59.584 39.644,59.136 39.092,59.136C38.54,59.136 38.092,59.584 38.092,60.136L38.092,64.833C38.092,65.386 38.54,65.833 39.092,65.833Z" style="fill-rule:nonzero;"/>
        </g>
        <g transform="matrix(1.23813,0,0,1.23813,-11.0385,-10.8466)">
            <path d="M39.092,56.145C39.644,56.145 40.092,55.697 40.092,55.145L40.092,50.448C40.092,49.896 39.644,49.448 39.092,49.448C38.54,49.448 38.092,49.896 38.092,50.448L38.092,55.145C38.092,55.697 38.54,56.145 39.092,56.145Z" style="fill-rule:nonzero;"/>
        </g>
        <g transform="matrix(1.23813,0,0,1.23813,-11.0385,-10.8466)">
            <path d="M39.092,46.457C39.644,46.457 40.092,46.009 40.092,45.457L40.092,40.76C40.092,40.208 39.644,39.76 39.092,39.76C38.54,39.76 38.092,40.208 38.092,40.76L38.092,45.457C38.092,46.009 38.54,46.457 39.092,46.457Z" style="fill-rule:nonzero;"/>
        </g>
        <g transform="matrix(1.23813,0,0,1.23813,-11.0385,-10.8466)">
            <path d="M33.532,65.833C34.084,65.833 34.532,65.385 34.532,64.833L34.532,60.136C34.532,59.584 34.084,59.136 33.532,59.136C32.98,59.136 32.532,59.584 32.532,60.136L32.532,64.833C32.532,65.386 32.979,65.833 33.532,65.833Z" style="fill-rule:nonzero;"/>
        </g>
        <g transform="matrix(1.23813,0,0,1.23813,-11.0385,-10.8466)">
            <path d="M33.532,56.145C34.084,56.145 34.532,55.697 34.532,55.145L34.532,50.448C34.532,49.896 34.084,49.448 33.532,49.448C32.98,49.448 32.532,49.896 32.532,50.448L32.532,55.145C32.532,55.697 32.979,56.145 33.532,56.145Z" style="fill-rule:nonzero;"/>
        </g>
        <g transform="matrix(1.23813,0,0,1.23813,-11.0385,-10.8466)">
            <path d="M33.532,46.457C34.084,46.457 34.532,46.009 34.532,45.457L34.532,40.76C34.532,40.208 34.084,39.76 33.532,39.76C32.98,39.76 32.532,40.208 32.532,40.76L32.532,45.457C32.532,46.009 32.979,46.457 33.532,46.457Z" style="fill-rule:nonzero;"/>
        </g>
        <g transform="matrix(1.23813,0,0,1.23813,-11.0385,-10.8466)">
            <path d="M89,88L83.937,88L83.948,82.965C86.979,82.52 89.307,80.06 89.307,77.093C89.307,75.905 88.927,74.747 88.226,73.77C88.412,73.245 88.506,72.699 88.506,72.142C88.506,71.106 88.176,70.098 87.567,69.243C87.704,68.819 87.774,68.381 87.774,67.934C87.774,65.437 85.618,63.405 82.968,63.405C80.406,63.405 78.298,65.293 78.169,67.698C78.165,67.776 78.163,67.854 78.163,67.933C78.163,68.38 78.232,68.818 78.37,69.242C77.761,70.096 77.431,71.105 77.431,72.141C77.431,72.698 77.525,73.243 77.71,73.768C77.003,74.752 76.629,75.901 76.629,77.092C76.629,80.047 78.937,82.499 81.949,82.959L81.937,88L73.113,88L73.113,33.944C73.113,33.392 72.665,32.944 72.113,32.944L67.803,32.944L67.803,12L69.247,12C69.799,12 70.247,11.552 70.247,11C70.247,10.448 69.799,10 69.247,10L30.753,10C30.201,10 29.753,10.448 29.753,11C29.753,11.552 30.201,12 30.753,12L32.197,12L32.197,32.944L27.885,32.944C27.333,32.944 26.885,33.392 26.885,33.944L26.885,88L17.924,88L17.935,82.965C20.966,82.52 23.294,80.06 23.294,77.093C23.294,75.905 22.914,74.747 22.213,73.77C22.399,73.245 22.493,72.699 22.493,72.142C22.493,71.106 22.163,70.098 21.554,69.243C21.691,68.819 21.761,68.381 21.761,67.934C21.761,65.437 19.605,63.405 16.955,63.405C14.393,63.405 12.285,65.293 12.156,67.698C12.152,67.776 12.15,67.854 12.15,67.933C12.15,68.38 12.219,68.818 12.357,69.242C11.748,70.096 11.418,71.105 11.418,72.141C11.418,72.698 11.512,73.243 11.697,73.768C10.99,74.752 10.616,75.901 10.616,77.092C10.616,80.047 12.924,82.499 15.936,82.959L15.925,88L11,88C10.448,88 10,88.448 10,89C10,89.552 10.448,90 11,90L89,90C89.552,90 90,89.552 90,89C90,88.448 89.552,88 89,88ZM78.628,77.092C78.628,76.32 78.874,75.571 79.338,74.928C79.421,74.813 79.51,74.702 79.606,74.596C79.882,74.289 79.941,73.843 79.755,73.474C79.539,73.048 79.429,72.599 79.429,72.14C79.429,71.383 79.714,70.674 80.252,70.089C80.533,69.783 80.596,69.336 80.411,68.965C80.246,68.634 80.162,68.287 80.162,67.932L80.165,67.807C80.237,66.459 81.468,65.403 82.967,65.403C84.514,65.403 85.773,66.537 85.773,67.932C85.773,68.287 85.69,68.634 85.524,68.965C85.338,69.336 85.401,69.783 85.683,70.089C86.221,70.674 86.506,71.383 86.506,72.14C86.506,72.599 86.397,73.048 86.181,73.474C85.994,73.842 86.053,74.287 86.328,74.594C86.969,75.307 87.307,76.171 87.307,77.091C87.307,79.27 85.36,81.042 82.967,81.042C80.575,81.043 78.628,79.271 78.628,77.092ZM12.616,77.092C12.616,76.32 12.862,75.571 13.326,74.928C13.409,74.813 13.498,74.702 13.594,74.596C13.87,74.289 13.929,73.843 13.743,73.474C13.527,73.048 13.417,72.599 13.417,72.14C13.417,71.383 13.702,70.674 14.24,70.089C14.521,69.783 14.584,69.336 14.399,68.965C14.234,68.634 14.15,68.287 14.15,67.932L14.153,67.807C14.225,66.459 15.456,65.403 16.955,65.403C18.502,65.403 19.761,66.537 19.761,67.932C19.761,68.287 19.678,68.634 19.512,68.965C19.326,69.336 19.389,69.783 19.671,70.089C20.209,70.674 20.494,71.383 20.494,72.14C20.494,72.599 20.385,73.048 20.169,73.474C19.982,73.842 20.041,74.287 20.316,74.594C20.957,75.307 21.295,76.171 21.295,77.091C21.295,79.27 19.348,81.042 16.955,81.042C14.563,81.043 12.616,79.271 12.616,77.092ZM34.197,12L65.802,12L65.802,32.944L34.197,32.944L34.197,12ZM71.112,34.944L71.112,70.166L28.886,70.166L28.886,34.944L71.112,34.944ZM28.886,72.167L71.113,72.167L71.113,88L64.268,88L64.268,80.839C64.268,77.849 61.835,75.417 58.845,75.417C57.02,75.417 55.405,76.326 54.422,77.713C53.439,76.327 51.825,75.417 50,75.417C48.175,75.417 46.56,76.326 45.577,77.713C44.594,76.327 42.98,75.417 41.155,75.417C38.165,75.417 35.732,77.85 35.732,80.839L35.732,88L28.887,88L28.887,72.167L28.886,72.167ZM44.576,88L37.731,88L37.731,80.839C37.731,78.952 39.267,77.417 41.154,77.417C43.041,77.417 44.576,78.952 44.576,80.839L44.576,88ZM53.421,88L46.576,88L46.576,80.839C46.576,78.952 48.112,77.417 49.999,77.417C51.886,77.417 53.421,78.952 53.421,80.839L53.421,88ZM62.267,88L55.421,88L55.421,80.839C55.421,78.952 56.957,77.417 58.844,77.417C60.731,77.417 62.267,78.952 62.267,80.839L62.267,88Z" style="fill-rule:nonzero;"/>
        </g>
    </g>
</svg>
