<?xml version="1.0" encoding="UTF-8" standalone="no"?><!DOCTYPE svg PUBLIC "-//W3C//DTD SVG 1.1//EN" "http://www.w3.org/Graphics/SVG/1.1/DTD/svg11.dtd"><svg width="100%" height="100%" viewBox="0 0 100 100" version="1.1" xmlns="http://www.w3.org/2000/svg" xmlns:xlink="http://www.w3.org/1999/xlink" xml:space="preserve" xmlns:serif="http://www.serif.com/" style="fill-rule:evenodd;clip-rule:evenodd;stroke-linejoin:round;stroke-miterlimit:2;"><g><g><path d="M34.5,59.7c-0.6,0 -1,-0.5 -1,-1c0,-0.5 0.5,-1 1,-1c0.6,0 1,0.5 1,1c0,0.5 -0.4,1 -1,1Z" style="fill-rule:nonzero;"/></g><g><path d="M49.1,63.7l-44.5,0c-2.5,0 -4.6,-2.1 -4.6,-4.6l0,-4.5c0,-0.6 0.5,-1 1,-1l13,0c0.6,0 1,0.5 1,1c0,0.5 -0.5,1 -1,1l-11.9,0l0,3.4c0,1.4 1.1,2.5 2.5,2.5l44.5,0c0.6,0 1,0.5 1,1c0,0.5 -0.4,1.2 -1,1.2Z" style="fill-rule:nonzero;"/></g><g><path d="M49.2,55.7l-48.2,0c-0.6,0 -1,-0.5 -1,-1l0,-38.7c0,-2.5 2.1,-4.6 4.6,-4.6l59.8,0c2.5,0 4.6,2.1 4.6,4.6l0,25.2c0,0.6 -0.5,1 -1,1c-0.5,0 -1,-0.5 -1,-1l0,-25.2c0,-1.4 -1.1,-2.5 -2.5,-2.5l-59.9,0c-1.4,0 -2.5,1.1 -2.5,2.5l0,37.6l47.1,0c0.6,0 1,0.5 1,1c0,0.5 -0.5,1.1 -1,1.1Z" style="fill-rule:nonzero;"/></g><g><path d="M49.5,78l-30,0c-0.4,0 -0.8,-0.3 -1,-0.7c-0.1,-0.4 0,-0.9 0.3,-1.2l3.9,-3.3l1.2,-1.1c2.3,-2.2 2.9,-5.8 1.5,-8.7c-0.3,-0.5 -0.1,-1.1 0.4,-1.4c0.5,-0.3 1.1,-0.1 1.4,0.4c1.9,3.7 1.1,8.3 -1.9,11.1l-1.2,1.1l-1.8,1.5l24.3,0l-1.7,-1.4l-1.3,-1.2c-3,-2.9 -3.8,-7.4 -1.9,-11.1c0.3,-0.5 0.9,-0.7 1.4,-0.4c0.5,0.3 0.7,0.9 0.4,1.4c-1.5,2.9 -0.9,6.4 1.5,8.7l1.2,1.1l3.9,3.2c0.3,0.3 0.5,0.7 0.3,1.2c0,0.5 -0.4,0.8 -0.9,0.8Z" style="fill-rule:nonzero;"/></g><g><path d="M58.6,81.7c-0.6,0 -1,-0.5 -1,-1l0,-14.7c0,-0.6 0.5,-1 1,-1c0.6,0 1,0.5 1,1l0,14.7c0,0.6 -0.4,1 -1,1Z" style="fill-rule:nonzero;"/></g><g><path d="M58.6,52.2c-0.6,0 -1,-0.5 -1,-1l0,-14.6c0,-0.6 0.5,-1 1,-1c0.6,0 1,0.5 1,1l0,14.6c0,0.5 -0.4,1 -1,1Z" style="fill-rule:nonzero;"/></g><g><path d="M58.6,88.6c-2.5,0 -4.5,-2 -4.5,-4.5c0,-2.5 2,-4.5 4.5,-4.5c2.5,0 4.5,2 4.5,4.5c0,2.5 -2.1,4.5 -4.5,4.5Zm0,-6.9c-1.3,0 -2.4,1.1 -2.4,2.4c0,1.3 1.1,2.4 2.4,2.4c1.3,0 2.4,-1.1 2.4,-2.4c0,-1.3 -1.1,-2.4 -2.4,-2.4Z" style="fill-rule:nonzero;"/></g><g><path d="M58.6,37.6c-2.5,0 -4.5,-2 -4.5,-4.5c0,-2.5 2,-4.5 4.5,-4.5c2.5,0 4.5,2 4.5,4.5c0,2.5 -2.1,4.5 -4.5,4.5Zm0,-6.9c-1.3,0 -2.4,1.1 -2.4,2.4c0,1.3 1.1,2.4 2.4,2.4c1.3,0 2.4,-1.1 2.4,-2.4c0,-1.3 -1.1,-2.4 -2.4,-2.4Z" style="fill-rule:nonzero;"/></g><g><path d="M63.1,63.1l-9,0l0,-9l9,0l0,9Zm-6.9,-2.1l4.8,0l0,-4.8l-4.8,0l0,4.8Z" style="fill-rule:nonzero;"/></g><g><path d="M73.8,82.4c-9,0 -16.3,-7.3 -16.3,-16.3c0,-0.6 0.5,-1 1,-1c0.6,0 1,0.5 1,1c0,7.8 6.4,14.2 14.2,14.2c7.8,0 14.2,-6.4 14.2,-14.2c0,-0.6 0.5,-1 1,-1c0.6,0 1,0.5 1,1c0.3,8.9 -7.1,16.3 -16.1,16.3Z" style="fill-rule:nonzero;"/></g><g><g><path d="M97.3,42.2l-16.2,0l0,-6.8c0,-1.6 1.3,-3 3,-3l10.2,0c1.6,0 3,1.3 3,3l0,6.8Zm-14.2,-2l11.9,0l0,-4.7c0,-0.5 -0.4,-0.9 -0.9,-0.9l-10.1,0c-0.5,0 -0.9,0.4 -0.9,0.9l0,4.7Z" style="fill-rule:nonzero;"/></g><g><path d="M89.1,68.2l-10.9,-15.9l2.9,-11.4c0.1,-0.6 0.7,-0.9 1.3,-0.8c0.6,0.1 0.9,0.7 0.8,1.3l-2.6,10.4l8.6,12.6l8.6,-12.6l-2.6,-10.4c-0.1,-0.6 0.2,-1.1 0.8,-1.3c0.6,-0.1 1.1,0.2 1.3,0.8l2.9,11.4l-11.1,15.9Z" style="fill-rule:nonzero;"/></g></g><g><g><path d="M34.5,29.8c-0.1,0 -0.3,0 -0.4,-0.1l-12.3,-5c-0.4,-0.2 -0.7,-0.6 -0.6,-1c0,-0.4 0.3,-0.8 0.7,-1l12.3,-4.5c0.2,-0.1 0.5,-0.1 0.7,0l12.3,4.5c0.5,0.2 0.8,0.8 0.6,1.3c-0.2,0.5 -0.8,0.8 -1.3,0.6l-11.9,-4.4l-9.4,3.4l9.8,4c0.5,0.2 0.8,0.8 0.6,1.4c-0.3,0.6 -0.7,0.8 -1.1,0.8Z" style="fill-rule:nonzero;"/></g><g><path d="M32.8,48.8c-0.1,0 -0.3,0 -0.4,-0.1l-13.6,-5.6c-0.4,-0.2 -0.6,-0.5 -0.6,-1l0,-16c0,-0.6 0.5,-1 1,-1c0.6,0 1,0.5 1,1l0,15.3l11.5,4.7l0,-14.4c0,-0.6 0.5,-1 1,-1c0.6,0 1,0.5 1,1l0,16c0,0.3 -0.2,0.7 -0.5,0.9c0,0.1 -0.2,0.2 -0.4,0.2Z" style="fill-rule:nonzero;"/></g><g><path d="M36.2,48.8c-0.4,0 -0.8,-0.2 -1,-0.6c-0.2,-0.5 0,-1.1 0.6,-1.4l12.9,-5.3l0,-13.8l-12.1,5c-0.5,0.2 -1.1,0 -1.4,-0.6c-0.2,-0.5 0,-1.1 0.6,-1.4l13.6,-5.6c0.3,-0.1 0.7,-0.1 1,0.1c0.3,0.2 0.5,0.5 0.5,0.9l0,16c0,0.4 -0.3,0.8 -0.6,1l-13.6,5.6c-0.3,0.1 -0.4,0.1 -0.5,0.1Z" style="fill-rule:nonzero;"/></g></g></g></svg>