<?xml version="1.0" encoding="UTF-8" standalone="no"?><!DOCTYPE svg PUBLIC "-//W3C//DTD SVG 1.1//EN" "http://www.w3.org/Graphics/SVG/1.1/DTD/svg11.dtd"><svg width="100%" height="100%" viewBox="0 0 100 100" version="1.1" xmlns="http://www.w3.org/2000/svg" xmlns:xlink="http://www.w3.org/1999/xlink" xml:space="preserve" xmlns:serif="http://www.serif.com/" style="fill-rule:evenodd;clip-rule:evenodd;stroke-linejoin:round;stroke-miterlimit:2;"><g><g><g><path d="M41.329,16.737c-0.282,0 -0.564,-0.094 -0.752,-0.282c-1.408,-1.408 -2.159,-3.192 -2.159,-5.164c0,-1.972 0.751,-3.756 2.159,-5.164c0.376,-0.376 1.033,-0.376 1.503,0c0.375,0.375 0.375,1.033 0,1.502c-0.939,0.939 -1.503,2.254 -1.503,3.662c0,1.408 0.564,2.629 1.503,3.662c0.375,0.375 0.375,1.032 0,1.502c-0.188,0.188 -0.47,0.282 -0.751,0.282Z" style="fill-rule:nonzero;"/></g><g><path d="M38.042,20.023c-0.281,0 -0.563,-0.094 -0.751,-0.282c-2.253,-2.253 -3.474,-5.258 -3.474,-8.45c0,-3.192 1.221,-6.197 3.474,-8.45c0.376,-0.376 1.033,-0.376 1.503,0c0.375,0.375 0.375,1.032 0,1.502c-1.878,1.878 -2.911,4.319 -2.911,6.948c0,2.629 1.033,5.07 2.911,6.948c0.375,0.375 0.375,1.033 0,1.502c-0.188,0.188 -0.47,0.282 -0.752,0.282Z" style="fill-rule:nonzero;"/></g></g><g><g><path d="M54.849,16.737c-0.282,0 -0.563,-0.094 -0.751,-0.282c-0.376,-0.376 -0.376,-1.033 0,-1.502c0.939,-0.939 1.502,-2.254 1.502,-3.662c0,-1.408 -0.563,-2.629 -1.502,-3.662c-0.376,-0.375 -0.376,-1.033 0,-1.502c0.375,-0.376 1.033,-0.376 1.502,0c1.409,1.408 2.16,3.192 2.16,5.164c0,1.972 -0.751,3.756 -2.16,5.164c-0.282,0.188 -0.469,0.282 -0.751,0.282Z" style="fill-rule:nonzero;"/></g><g><path d="M58.135,20.023c-0.281,0 -0.563,-0.094 -0.751,-0.282c-0.375,-0.375 -0.375,-1.033 0,-1.502c1.878,-1.878 2.911,-4.319 2.911,-6.948c0,-2.629 -1.033,-5.07 -2.911,-6.948c-0.375,-0.376 -0.375,-1.033 0,-1.502c0.376,-0.376 1.033,-0.376 1.502,0c2.254,2.253 3.474,5.258 3.474,8.45c0,3.192 -1.22,6.197 -3.474,8.45c-0.187,0.188 -0.469,0.282 -0.751,0.282Z" style="fill-rule:nonzero;"/></g></g><g><g><path d="M93.72,77.578c-0.563,0 -1.033,-0.469 -1.033,-1.032l0,-22.253c0,-4.131 -3.38,-7.605 -7.605,-7.605c-4.131,0 -7.605,3.38 -7.605,7.605l0,6.854c0,0.564 -0.47,1.033 -1.033,1.033c-0.563,0 -1.033,-0.469 -1.033,-1.033l0,-6.854c0,-5.352 4.319,-9.671 9.671,-9.671c5.352,0 9.671,4.319 9.671,9.671l0,22.253c0,0.563 -0.47,1.032 -1.033,1.032Z" style="fill-rule:nonzero;"/></g><g><path d="M89.213,44.622c-0.563,0 -1.033,-0.469 -1.033,-1.032l0,-2.066c0,-1.69 -1.314,-3.005 -3.004,-3.005c-1.69,0 -3.005,1.315 -3.005,3.005l0,2.066c0,0.563 -0.469,1.032 -1.032,1.032c-0.564,0 -1.033,-0.469 -1.033,-1.032l0,-2.066c0,-2.817 2.253,-5.164 5.164,-5.164c2.817,0 5.164,2.253 5.164,5.164l0,2.066c-0.188,0.563 -0.657,1.032 -1.221,1.032Z" style="fill-rule:nonzero;"/></g><g><path d="M85.082,38.519c-0.563,0 -1.033,-0.469 -1.033,-1.032l0,-7.606c0,-0.563 0.47,-1.032 1.033,-1.032c0.563,0 1.033,0.469 1.033,1.032l0,7.606c0,0.563 -0.47,1.032 -1.033,1.032Z" style="fill-rule:nonzero;"/></g></g><g><path d="M88.556,96.451c-0.563,0 -1.033,-0.47 -1.033,-1.033l0,-12.676l-23.191,0c-0.563,0 -1.033,-0.469 -1.033,-1.032c0,-0.564 0.47,-1.033 1.033,-1.033l24.224,0c0.563,0 1.033,0.469 1.033,1.033l0,13.708c0.094,0.563 -0.376,1.033 -1.033,1.033Z" style="fill-rule:nonzero;"/></g><g><path d="M81.984,82.742c-0.564,0 -1.033,-0.469 -1.033,-1.032l0,-7.136l-8.826,0l0,7.136c0,0.563 -0.469,1.032 -1.033,1.032c-0.563,0 -1.033,-0.469 -1.033,-1.032l0,-8.169c0,-0.563 0.47,-1.033 1.033,-1.033l10.892,0c0.563,0 1.032,0.47 1.032,1.033l0,8.169c0,0.563 -0.469,1.032 -1.032,1.032Z" style="fill-rule:nonzero;"/></g><g><path d="M76.444,74.668c-0.563,0 -1.033,-0.47 -1.033,-1.033l0,-7.605c0,-0.564 0.47,-1.033 1.033,-1.033c0.563,0 1.033,0.469 1.033,1.033l0,7.605c0.094,0.563 -0.376,1.033 -1.033,1.033Z" style="fill-rule:nonzero;"/></g><g><path d="M55.131,73.823c-0.564,0 -1.033,-0.47 -1.033,-1.033l0,-7.042l-11.643,0l0,7.042c0,0.563 -0.469,1.033 -1.032,1.033c-0.564,0 -1.033,-0.47 -1.033,-1.033l0,-8.169c0,-0.563 0.469,-1.033 1.033,-1.033l13.708,0c0.563,0 1.032,0.47 1.032,1.033l0,8.169c0,0.563 -0.469,1.033 -1.032,1.033Z" style="fill-rule:nonzero;"/></g><g><path d="M48.277,65.748c-0.564,0 -1.033,-0.469 -1.033,-1.033l0,-7.605c0,-0.563 0.469,-1.033 1.033,-1.033c0.563,0 1.032,0.47 1.032,1.033l0,7.605c0,0.564 -0.469,1.033 -1.032,1.033Z" style="fill-rule:nonzero;"/></g><g><g><path d="M64.332,96.451c-0.563,0 -1.033,-0.47 -1.033,-1.033l0,-21.595l-25.914,0c-0.563,0 -1.033,-0.47 -1.033,-1.033c0,-0.563 0.47,-1.033 1.033,-1.033l26.947,0c0.563,0 1.033,0.47 1.033,1.033l0,22.628c0,0.563 -0.47,1.033 -1.033,1.033Z" style="fill-rule:nonzero;"/></g></g><g><g><path d="M57.009,43.777c-0.564,0 -1.033,-0.469 -1.033,-1.032l0,-12.019l-4.225,0c-0.564,0 -1.033,-0.469 -1.033,-1.032l0,-8.263l-4.883,0l0,8.263c0,0.563 -0.469,1.032 -1.032,1.032l-4.226,0l0,12.019c0,0.563 -0.469,1.032 -1.032,1.032c-0.564,0 -1.033,-0.469 -1.033,-1.032l0,-13.145c0,-0.564 0.469,-1.033 1.033,-1.033l4.225,0l0,-8.169c0,-0.563 0.469,-1.032 1.033,-1.032l6.948,0c0.563,0 1.032,0.469 1.032,1.032l0,8.263l4.226,0c0.563,0 1.032,0.469 1.032,1.033l0,13.144c0,0.47 -0.469,0.939 -1.032,0.939Z" style="fill-rule:nonzero;"/></g><g><path d="M64.144,69.128c-0.563,0 -1.033,-0.469 -1.033,-1.033l0,-24.318l-6.102,0c-0.564,0 -1.033,-0.469 -1.033,-1.032c0,-0.564 0.469,-1.033 1.033,-1.033l7.135,0c0.564,0 1.033,0.469 1.033,1.033l0,25.35c0.094,0.564 -0.375,1.033 -1.033,1.033Z" style="fill-rule:nonzero;"/></g><g><path d="M48.277,43.777l-11.831,0c-0.563,0 -1.033,-0.469 -1.033,-1.032c0,-0.564 0.47,-1.033 1.033,-1.033l11.831,0c0.563,0 1.032,0.469 1.032,1.033c0,0.563 -0.469,1.032 -1.032,1.032Z" style="fill-rule:nonzero;"/></g><g><path d="M48.277,21.431c-0.564,0 -1.033,-0.469 -1.033,-1.033l0,-9.107c0,-0.563 0.469,-1.033 1.033,-1.033c0.563,0 1.032,0.47 1.032,1.033l0,9.107c0,0.564 -0.469,1.033 -1.032,1.033Z" style="fill-rule:nonzero;"/></g></g><g><path d="M76.444,54.575l-12.3,0c-0.563,0 -1.033,-0.47 -1.033,-1.033c0,-0.563 0.47,-1.033 1.033,-1.033l12.3,0c0.563,0 1.033,0.47 1.033,1.033c0.094,0.563 -0.376,1.033 -1.033,1.033Z" style="fill-rule:nonzero;"/></g><g><rect x="84.049" y="53.542" width="2.066" height="1.878"/></g><g><rect x="84.049" y="61.711" width="2.066" height="1.878"/></g><g><rect x="55.976" y="49.505" width="2.066" height="1.878"/></g><g><rect x="55.976" y="57.673" width="2.066" height="1.878"/></g><g><rect x="47.244" y="49.505" width="2.066" height="1.878"/></g><g><rect x="55.976" y="81.71" width="2.066" height="1.878"/></g><g><rect x="47.244" y="81.71" width="2.066" height="1.878"/></g><g><rect x="38.7" y="81.71" width="2.066" height="1.878"/></g><g><rect x="38.7" y="89.784" width="2.066" height="1.878"/></g><g><rect x="55.976" y="89.784" width="2.066" height="1.878"/></g><g><rect x="47.244" y="89.784" width="2.066" height="1.878"/></g><g><rect x="79.824" y="88.845" width="2.066" height="1.878"/></g><g><rect x="71.092" y="88.845" width="2.066" height="1.878"/></g><g><path d="M22.926,91.85l-1.127,0l-0.281,-0.094c-2.066,0 -5.071,0 -7.512,-2.911c-1.22,-1.408 -1.878,-3.286 -1.878,-5.164l0,-7.887c0,-2.253 -0.939,-4.413 -2.441,-6.009c-3.286,-3.192 -5.07,-7.511 -5.07,-12.206c0,-4.788 1.972,-9.389 5.54,-12.675c2.91,-2.723 6.572,-4.319 10.515,-4.601l2.442,0c3.943,0.282 7.605,1.878 10.516,4.601c3.474,3.286 5.539,7.887 5.539,12.675c0,4.601 -1.784,9.014 -5.07,12.3c-1.596,1.596 -2.441,3.756 -2.441,5.915l0,7.887c0,1.878 -0.657,3.662 -1.878,5.164c-2.253,2.723 -4.976,3.005 -6.854,3.005Zm-1.033,-2.16l0.47,0c1.69,0 3.943,0.094 5.821,-2.159c0.845,-1.033 1.314,-2.441 1.314,-3.756l0,-7.887c0,-2.816 1.127,-5.539 3.099,-7.511c2.91,-2.911 4.507,-6.666 4.507,-10.798c0,-4.225 -1.784,-8.262 -4.789,-11.079c-2.817,-2.629 -6.478,-4.131 -10.328,-4.131c-3.85,0 -7.511,1.408 -10.328,4.131c-3.099,2.911 -4.789,6.948 -4.789,11.079c-0.187,4.132 1.409,7.887 4.319,10.798c1.972,1.972 3.099,4.695 3.099,7.417l0,7.887c0,1.409 0.469,2.723 1.314,3.756c1.784,2.159 3.944,2.159 5.916,2.159l0.375,0.094Z" style="fill-rule:nonzero;"/></g><g><path d="M12.598,58.612c-0.564,0 -1.033,-0.469 -1.033,-1.033c0,-2.91 1.127,-5.539 3.286,-7.511c1.878,-1.784 4.413,-2.723 7.042,-2.817c0.563,0 1.033,0.47 1.033,1.033c0,0.564 -0.47,1.033 -1.033,1.033c-2.066,0 -4.037,0.751 -5.633,2.253c-1.69,1.597 -2.629,3.662 -2.629,6.009c0.094,0.564 -0.376,1.033 -1.033,1.033Z" style="fill-rule:nonzero;"/></g><g><path d="M23.208,96.451l-2.723,0c-1.784,0 -3.193,-1.409 -3.193,-3.193l0,-2.535c0,-0.563 0.47,-1.033 1.033,-1.033c0.564,0 1.033,0.47 1.033,1.033l0,2.535c0,0.564 0.469,1.127 1.127,1.127l2.723,0c0.563,0 1.126,-0.47 1.126,-1.127l0,-2.535c0,-0.563 0.47,-1.033 1.033,-1.033c0.563,0 1.033,0.47 1.033,1.033l0,2.535c0,1.784 -1.408,3.193 -3.192,3.193Z" style="fill-rule:nonzero;"/></g></g></svg>