<?xml version="1.0" encoding="UTF-8" standalone="no"?><!DOCTYPE svg PUBLIC "-//W3C//DTD SVG 1.1//EN" "http://www.w3.org/Graphics/SVG/1.1/DTD/svg11.dtd"><svg width="100%" height="100%" viewBox="0 0 100 100" version="1.1" xmlns="http://www.w3.org/2000/svg" xmlns:xlink="http://www.w3.org/1999/xlink" xml:space="preserve" xmlns:serif="http://www.serif.com/" style="fill-rule:evenodd;clip-rule:evenodd;stroke-linejoin:round;stroke-miterlimit:2;"><g><g><g><g><g><g><g><g><g><path d="M17.9,72.9l-11,0c-3.3,0 -6.1,-2.7 -6.1,-6.1l0,-60.7c0,-3.4 2.8,-6.1 6.1,-6.1l31.7,0c3.3,0 6.1,2.7 6.1,6.1l0,24.1c0,0.6 -0.5,1.1 -1.1,1.1c-0.6,0 -1.1,-0.5 -1.1,-1.1l0,-24.1c0,-2.1 -1.7,-3.8 -3.8,-3.8l-31.8,0c-2.1,-0.1 -3.8,1.7 -3.8,3.8l0,60.8c0,2.1 1.7,3.8 3.8,3.8l11,0c0.6,0 1.1,0.5 1.1,1.1c0,0.6 -0.5,1.1 -1.1,1.1Z" style="fill-rule:nonzero;"/></g><g><path d="M29.5,8l-13.5,0c-2.3,0 -4.1,-1.9 -4.1,-4.1l0,-2.8c0,-0.6 0.5,-1.1 1.1,-1.1c0.6,0 1.1,0.5 1.1,1.1l0,2.7c0,1 0.9,1.9 1.9,1.9l13.5,0c1,0 1.9,-0.9 1.9,-1.9l0,-2.7c0,-0.6 0.5,-1.1 1.1,-1.1c0.6,0 1.1,0.5 1.1,1.1l0,2.7c0,2.3 -1.8,4.2 -4.1,4.2Z" style="fill-rule:nonzero;"/></g></g></g></g></g></g></g><g><g><g><g><g><g><g><path d="M33.4,29.9c-0.2,0 -0.4,-0.1 -0.6,-0.2c-3.1,-2 -6.7,-3.1 -10.4,-3.1c-3.7,0 -7.3,1.1 -10.4,3.1c-0.5,0.3 -1.2,0.2 -1.5,-0.3c-0.3,-0.5 -0.2,-1.2 0.3,-1.5c3.5,-2.2 7.5,-3.4 11.6,-3.4c4.1,0 8.1,1.2 11.6,3.4c0.5,0.3 0.7,1 0.3,1.5c-0.2,0.4 -0.6,0.5 -0.9,0.5Z" style="fill-rule:nonzero;"/></g><g><path d="M26.9,36c-0.2,0 -0.4,-0.1 -0.6,-0.2c-2.3,-1.5 -5.4,-1.5 -7.7,0c-0.6,0.3 -1.3,0.2 -1.6,-0.3c-0.3,-0.5 -0.2,-1.2 0.3,-1.5c3,-2 7.1,-2 10.1,0c0.5,0.3 0.7,1 0.3,1.5c-0.1,0.3 -0.5,0.5 -0.8,0.5Z" style="fill-rule:nonzero;"/></g></g></g></g><circle cx="22.4" cy="40.2" r="1.6"/></g></g></g><g><g><path d="M32.7,100c-7.1,0 -12.9,-5.8 -12.9,-12.9c0,-7.1 5.8,-12.9 12.9,-12.9c7.1,0 12.9,5.8 12.9,12.9c0,7.1 -5.8,12.9 -12.9,12.9Zm0,-23.6c-5.9,0 -10.7,4.8 -10.7,10.7c0,5.9 4.8,10.7 10.7,10.7c5.9,0 10.6,-4.8 10.6,-10.7c0,-5.9 -4.7,-10.7 -10.6,-10.7Z" style="fill-rule:nonzero;"/></g><g><path d="M37.2,88.2c-0.6,0 -1.1,-0.5 -1.1,-1.1c0,-1.9 -1.5,-3.4 -3.4,-3.4c-1.9,0 -3.4,1.5 -3.4,3.4c0,0.6 -0.5,1.1 -1.1,1.1c-0.6,0 -1.1,-0.5 -1.1,-1.1c0,-3.1 2.5,-5.6 5.6,-5.6c3.1,0 5.6,2.5 5.6,5.6c0,0.6 -0.5,1.1 -1.1,1.1Z" style="fill-rule:nonzero;"/></g><g><path d="M79.7,100c-10.7,0 -19.5,-8.7 -19.5,-19.5c0,-10.7 8.7,-19.5 19.5,-19.5c10.8,0 19.5,8.7 19.5,19.5c0,10.8 -8.8,19.5 -19.5,19.5Zm0,-36.7c-9.5,0 -17.2,7.7 -17.2,17.2c0,9.5 7.7,17.2 17.2,17.2c9.5,0 17.2,-7.7 17.2,-17.2c0,-9.5 -7.7,-17.2 -17.2,-17.2Z" style="fill-rule:nonzero;"/></g><g><path d="M26,78.5c-0.4,0 -0.8,-0.2 -1,-0.6l-3.4,-5.9l0,-1.6c0,-8.8 6.5,-16.4 15.2,-17.6l0.4,0l17.6,-1.4l2.2,-3.1c1,-1.5 3,-1.9 4.6,-1.1l10.6,5.8l19,0c1.2,0 2.4,0.6 3,1.6c0.7,1 0.8,2.3 0.3,3.4l-3.5,7.8c-0.3,0.6 -0.9,0.8 -1.5,0.6c-0.6,-0.3 -0.8,-0.9 -0.6,-1.5l3.5,-7.7c0.2,-0.4 0.2,-0.9 -0.1,-1.3c-0.3,-0.4 -0.7,-0.6 -1.1,-0.6l-19.6,0l-11.1,-6.1c-0.6,-0.3 -1.3,-0.1 -1.7,0.4l-2.8,4l-18.9,1.5c-7.6,1.1 -13.3,7.7 -13.3,15.4l0,1l3.2,5.4c0.3,0.5 0.1,1.2 -0.4,1.5c-0.2,0 -0.4,0.1 -0.6,0.1Z" style="fill-rule:nonzero;"/></g><g><path d="M43.5,54.4c-0.6,0 -1.1,-0.5 -1.1,-1.1l0,-7.6c0,-1.4 1.1,-2.5 2.5,-2.5l2.8,0c1.4,0 2.5,1.1 2.5,2.5l0,7.1c0,0.6 -0.5,1.1 -1.1,1.1c-0.6,0 -1.1,-0.5 -1.1,-1.1l0,-7.1c0,-0.2 -0.1,-0.3 -0.3,-0.3l-2.8,0c-0.2,0 -0.3,0.1 -0.3,0.3l0,7.6c0,0.6 -0.5,1.1 -1.1,1.1Z" style="fill-rule:nonzero;"/></g><g><path d="M46.3,45.4c-0.6,0 -1.1,-0.5 -1.1,-1.1l0,-6.6l-2.6,-2.6c-0.4,-0.4 -0.4,-1.1 0,-1.6c0.4,-0.4 1.1,-0.4 1.6,0l3.3,3.3l0,7.5c-0.1,0.6 -0.6,1.1 -1.2,1.1Z" style="fill-rule:nonzero;"/></g><g><path d="M65.5,51.7c-0.2,0 -0.4,-0.1 -0.6,-0.2c-0.5,-0.3 -0.7,-1 -0.4,-1.5l3.1,-5.2c0.3,-0.5 1,-0.7 1.5,-0.4c0.5,0.3 0.7,1 0.4,1.5l-3.1,5.2c-0.1,0.4 -0.5,0.6 -0.9,0.6Z" style="fill-rule:nonzero;"/></g><g><path d="M72.5,48.7c-0.2,0 -0.4,0 -0.6,-0.2l-7.6,-4.4c-0.5,-0.3 -0.7,-1 -0.4,-1.5c0.3,-0.5 1,-0.7 1.5,-0.4l7.6,4.4c0.5,0.3 0.7,1 0.4,1.5c-0.2,0.4 -0.6,0.6 -0.9,0.6Z" style="fill-rule:nonzero;"/></g><g><path d="M79.7,55.2c-0.2,0 -0.3,0 -0.5,-0.1c-0.6,-0.3 -0.8,-0.9 -0.5,-1.5l4.5,-9.8c0.3,-0.7 1.1,-1.2 1.9,-1.2l1.5,0c1.8,0 3.2,1.5 3.2,3.2l0,8.2c0,0.6 -0.5,1.1 -1.1,1.1c-0.6,0 -1.1,-0.5 -1.1,-1.1l0,-8.2c0,-0.6 -0.4,-1 -1,-1l-1.4,0l-4.5,9.7c-0.2,0.5 -0.6,0.7 -1,0.7Z" style="fill-rule:nonzero;"/></g><g><path d="M34,76.5c-0.1,0 -0.3,0 -0.4,-0.1c-0.6,-0.2 -0.8,-0.9 -0.6,-1.5l2.8,-6.9c0.9,-2.1 2.8,-3.5 5.1,-3.7l13.7,-0.9l10.4,5.9c0.5,0.3 0.7,1 0.4,1.5c-0.3,0.5 -1,0.7 -1.5,0.4l-9.9,-5.5l-13,0.8c-1.4,0.1 -2.6,1 -3.2,2.3l-2.8,7c-0.1,0.4 -0.6,0.7 -1,0.7Z" style="fill-rule:nonzero;"/></g><g><path d="M61.4,83.5l-17.9,0c-0.6,0 -1.1,-0.5 -1.1,-1.1c0,-0.6 0.5,-1.1 1.1,-1.1l17.9,0c0.6,0 1.1,0.5 1.1,1.1c0,0.6 -0.5,1.1 -1.1,1.1Z" style="fill-rule:nonzero;"/></g><g><path d="M42.3,74.9c-0.1,0 -0.3,0 -0.4,-0.1c-0.6,-0.2 -0.9,-0.9 -0.6,-1.5l1.5,-3.9c0.2,-0.6 0.9,-0.9 1.5,-0.6c0.6,0.2 0.9,0.9 0.6,1.5l-1.5,3.9c-0.3,0.4 -0.7,0.7 -1.1,0.7Z" style="fill-rule:nonzero;"/></g><g><path d="M46.5,74.9c-0.1,0 -0.3,0 -0.4,-0.1c-0.6,-0.2 -0.9,-0.9 -0.6,-1.5l1.5,-3.9c0.2,-0.6 0.9,-0.9 1.5,-0.6c0.6,0.2 0.9,0.9 0.6,1.5l-1.5,3.9c-0.2,0.4 -0.7,0.7 -1.1,0.7Z" style="fill-rule:nonzero;"/></g><g><path d="M50.7,74.9c-0.1,0 -0.3,0 -0.4,-0.1c-0.6,-0.2 -0.9,-0.9 -0.6,-1.5l1.5,-3.9c0.2,-0.6 0.9,-0.9 1.5,-0.6c0.6,0.2 0.9,0.9 0.6,1.5l-1.5,3.9c-0.2,0.4 -0.7,0.7 -1.1,0.7Z" style="fill-rule:nonzero;"/></g></g></g><g><path d="M79.7,92.6c-6.7,0 -12.1,-5.4 -12.1,-12.1c0,-6.7 5.4,-12.1 12.1,-12.1c6.7,0 12.1,5.4 12.1,12.1c0,6.7 -5.5,12.1 -12.1,12.1Zm0,-21.9c-5.4,0 -9.8,4.4 -9.8,9.8c0,5.4 4.4,9.8 9.8,9.8c5.4,0 9.8,-4.4 9.8,-9.8c0,-5.4 -4.4,-9.8 -9.8,-9.8Z" style="fill-rule:nonzero;"/></g></g></svg>