<?xml version="1.0" encoding="UTF-8" standalone="no"?><!DOCTYPE svg PUBLIC "-//W3C//DTD SVG 1.1//EN" "http://www.w3.org/Graphics/SVG/1.1/DTD/svg11.dtd"><svg width="100%" height="100%" viewBox="0 0 100 100" version="1.1" xmlns="http://www.w3.org/2000/svg" xmlns:xlink="http://www.w3.org/1999/xlink" xml:space="preserve" xmlns:serif="http://www.serif.com/" style="fill-rule:evenodd;clip-rule:evenodd;stroke-linejoin:round;stroke-miterlimit:2;"><g><g><g><g><g><path d="M35.8,85.5c-3.6,0 -7.1,-1 -10.1,-3c-0.6,-0.4 -0.8,-1.2 -0.4,-1.8c0.4,-0.6 1.2,-0.8 1.8,-0.4c2.6,1.7 5.6,2.5 8.6,2.5c3.1,0 6.1,-0.9 8.6,-2.5c0.6,-0.4 1.4,-0.2 1.8,0.4c0.4,0.6 0.2,1.4 -0.4,1.8c-2.9,2 -6.3,3 -9.9,3Z" style="fill-rule:nonzero;"/></g><g><path d="M35.8,92.9c-5.3,0 -10.4,-1.5 -14.9,-4.4c-0.6,-0.4 -0.8,-1.2 -0.4,-1.8c0.4,-0.6 1.2,-0.8 1.8,-0.4c4,2.6 8.7,4 13.4,4c4.7,0 9.4,-1.4 13.4,-4c0.6,-0.4 1.4,-0.2 1.8,0.4c0.4,0.6 0.2,1.4 -0.4,1.8c-4.3,2.9 -9.4,4.4 -14.7,4.4Z" style="fill-rule:nonzero;"/></g><g><path d="M35.8,78.7c-1.6,0 -3.2,-0.5 -4.5,-1.3c-0.6,-0.4 -0.8,-1.2 -0.4,-1.8c0.4,-0.6 1.2,-0.8 1.8,-0.4c1.9,1.2 4.3,1.2 6.2,0c0.6,-0.4 1.4,-0.2 1.8,0.4c0.4,0.6 0.2,1.4 -0.4,1.8c-1.3,0.9 -2.9,1.3 -4.5,1.3Z" style="fill-rule:nonzero;"/></g></g></g></g><g><path d="M82.1,99.4l-3,0c-1.8,0 -3.2,-1.4 -3.2,-3.2l0,-1.7c-3.8,-1.6 -6.3,-5.3 -6.3,-9.5c0,-0.7 0.6,-1.3 1.3,-1.3l13.5,0c0.7,0 1.3,0.6 1.3,1.3c0,0.7 -0.6,1.3 -1.3,1.3l-12,0c0.5,2.8 2.5,5.1 5.2,6c0.6,0.2 0.9,0.7 0.9,1.3l0,2.7c0,0.3 0.3,0.6 0.6,0.6l3,0c0.3,0 0.6,-0.2 0.6,-0.6l0,-2.7c0,-0.6 0.4,-1.1 0.9,-1.3c3.2,-1 5.4,-4 5.4,-7.3l0,-3.2c0,-3 1.3,-6.3 3.5,-8.4c3.2,-3.2 4.9,-7.4 4.9,-11.8c0,-4.8 -2,-9.3 -5.6,-12.5c-3.6,-3.2 -8.3,-4.7 -13.1,-4.2c-7.6,0.7 -13.7,6.5 -14.7,14c-0.8,5.4 1,10.6 4.8,14.4c1.8,1.8 3,4.2 3.3,6.7c0.1,0.7 -0.4,1.4 -1.1,1.5c-0.7,0.1 -1.4,-0.4 -1.5,-1.1c-0.3,-2 -1.2,-3.8 -2.6,-5.2c-4.4,-4.4 -6.4,-10.5 -5.5,-16.7c1.3,-8.7 8.2,-15.4 17,-16.4c5.5,-0.6 11.1,1.1 15.2,4.8c4.1,3.7 6.5,9 6.5,14.5c0,5.2 -2,10 -5.7,13.7c-1.7,1.7 -2.7,4.2 -2.7,6.6l0,3.2c0,4.2 -2.5,7.9 -6.3,9.5l0,1.7c-0.1,1.9 -1.5,3.3 -3.3,3.3Z" style="fill-rule:nonzero;"/></g><g><path d="M35.8,56.5c-0.7,0 -1.3,-0.6 -1.3,-1.3l0,-5.9c0,-0.7 0.6,-1.3 1.3,-1.3c0.7,0 1.3,0.6 1.3,1.3l0,5.9c0,0.7 -0.6,1.3 -1.3,1.3Z" style="fill-rule:nonzero;"/></g><g><path d="M35.8,63.5c-3.9,0 -7.1,-3.2 -7.1,-7.1c0,-2.1 0.9,-4 2.4,-5.3c0.6,-0.5 1.4,-0.4 1.9,0.1c0.5,0.6 0.4,1.4 -0.1,1.9c-1,0.8 -1.5,2 -1.5,3.3c0,2.4 2,4.4 4.4,4.4c2.4,0 4.4,-2 4.4,-4.4c0,-1.2 -0.5,-2.4 -1.4,-3.2c-0.5,-0.5 -0.6,-1.3 -0.1,-1.9c0.5,-0.5 1.3,-0.6 1.9,-0.1c1.5,1.3 2.3,3.2 2.3,5.2c0,3.9 -3.2,7.1 -7.1,7.1Z" style="fill-rule:nonzero;"/></g><g><path d="M35.8,72.1c-19.7,0 -35.8,-16 -35.8,-35.7c0,-19.7 16.1,-35.8 35.8,-35.8c19.7,0 35.8,16.1 35.8,35.8c0,1.8 -0.1,3.5 -0.4,5.3c-0.1,0.7 -0.8,1.2 -1.5,1.1c-0.7,-0.1 -1.2,-0.8 -1.1,-1.5c0.2,-1.6 0.4,-3.2 0.4,-4.9c-0.1,-18.3 -15,-33.2 -33.2,-33.2c-18.3,0 -33.1,14.9 -33.1,33.2c0,18.3 14.9,33.1 33.1,33.1c7.8,0 15.3,-2.7 21.3,-7.7c0.6,-0.5 1.4,-0.4 1.9,0.2c0.5,0.6 0.4,1.4 -0.2,1.9c-6.5,5.3 -14.6,8.2 -23,8.2Z" style="fill-rule:nonzero;"/></g><g><path d="M51.4,54.9c-0.3,0 -0.7,-0.1 -0.9,-0.4l-7.7,-7.7c-0.3,-0.3 -0.4,-0.6 -0.4,-1c0,-0.4 0.2,-0.7 0.5,-1c2.5,-2.1 4,-5.2 4,-8.5c0,-6.1 -4.9,-11 -11,-11c-6.1,0 -11,4.9 -11,11c0,3.3 1.5,6.4 4,8.5c0.3,0.2 0.5,0.6 0.5,1c0,0.4 -0.1,0.7 -0.4,1l-7.7,7.7c-0.5,0.5 -1.3,0.5 -1.8,0c-5.1,-4.6 -8.1,-11.3 -8.1,-18.2c0,-13.5 11,-24.5 24.5,-24.5c13.5,0 24.5,11 24.5,24.5c0,6.9 -2.9,13.5 -8,18.2c-0.4,0.3 -0.7,0.4 -1,0.4Zm-15.6,-40.4c-12.1,0 -21.9,9.8 -21.9,21.9c0,5.7 2.3,11.3 6.3,15.3l5.8,-5.8c-2.5,-2.6 -3.9,-6 -3.9,-9.6c0,-7.6 6.1,-13.7 13.7,-13.7c7.6,0 13.7,6.1 13.7,13.7c0,3.6 -1.4,7 -3.9,9.5l5.8,5.8c4,-4.1 6.3,-9.6 6.3,-15.3c0,-12 -9.9,-21.8 -21.9,-21.8Z" style="fill-rule:nonzero;"/></g><g><path d="M35.8,18.9c-0.7,0 -1.3,-0.6 -1.3,-1.3l0,-4.4c0,-0.7 0.6,-1.3 1.3,-1.3c0.7,0 1.3,0.6 1.3,1.3l0,4.4c0,0.7 -0.6,1.3 -1.3,1.3Z" style="fill-rule:nonzero;"/></g><g><path d="M26.4,21.4c-0.5,0 -0.9,-0.2 -1.2,-0.7l-2.2,-3.8c-0.4,-0.6 -0.1,-1.5 0.5,-1.8c0.6,-0.4 1.5,-0.1 1.8,0.5l2.2,3.8c0.4,0.6 0.1,1.5 -0.5,1.8c-0.2,0.2 -0.4,0.2 -0.6,0.2Z" style="fill-rule:nonzero;"/></g><g><path d="M19.5,28.3c-0.2,0 -0.5,-0.1 -0.7,-0.2l-3.8,-2.2c-0.6,-0.4 -0.9,-1.2 -0.5,-1.8c0.4,-0.6 1.2,-0.9 1.8,-0.5l3.8,2.2c0.6,0.4 0.9,1.2 0.5,1.8c-0.2,0.5 -0.6,0.7 -1.1,0.7Z" style="fill-rule:nonzero;"/></g><g><path d="M17,37.7l-4.4,0c-0.7,0 -1.3,-0.6 -1.3,-1.3c0,-0.7 0.6,-1.3 1.3,-1.3l4.4,0c0.7,0 1.3,0.6 1.3,1.3c0,0.7 -0.6,1.3 -1.3,1.3Z" style="fill-rule:nonzero;"/></g><g><path d="M59,37.7l-4.4,0c-0.7,0 -1.3,-0.6 -1.3,-1.3c0,-0.7 0.6,-1.3 1.3,-1.3l4.4,0c0.7,0 1.3,0.6 1.3,1.3c0,0.7 -0.6,1.3 -1.3,1.3Z" style="fill-rule:nonzero;"/></g><g><path d="M52.1,28.3c-0.5,0 -0.9,-0.2 -1.2,-0.7c-0.4,-0.6 -0.2,-1.5 0.5,-1.8l3.8,-2.2c0.6,-0.4 1.5,-0.1 1.8,0.5c0.4,0.6 0.2,1.5 -0.5,1.8l-3.8,2.2c-0.2,0.1 -0.4,0.2 -0.6,0.2Z" style="fill-rule:nonzero;"/></g><g><path d="M45.2,21.4c-0.2,0 -0.5,-0.1 -0.7,-0.2c-0.6,-0.4 -0.9,-1.2 -0.5,-1.8l2.2,-3.8c0.4,-0.6 1.2,-0.9 1.8,-0.5c0.6,0.4 0.9,1.2 0.5,1.8l-2.2,3.8c-0.2,0.5 -0.7,0.7 -1.1,0.7Z" style="fill-rule:nonzero;"/></g></g></svg>