<?xml version="1.0" encoding="UTF-8" standalone="no"?><!DOCTYPE svg PUBLIC "-//W3C//DTD SVG 1.1//EN" "http://www.w3.org/Graphics/SVG/1.1/DTD/svg11.dtd"><svg width="100%" height="100%" viewBox="0 0 100 100" version="1.1" xmlns="http://www.w3.org/2000/svg" xmlns:xlink="http://www.w3.org/1999/xlink" xml:space="preserve" xmlns:serif="http://www.serif.com/" style="fill-rule:evenodd;clip-rule:evenodd;stroke-linejoin:round;stroke-miterlimit:2;"><g><g><g><path d="M33.365,79.184l-12.469,0l0,-9.376l0.798,-0.3c0.997,-0.299 1.695,-1.097 1.995,-1.995l0.299,-0.798l9.377,0l0,12.469Zm-10.175,-2.194l7.98,0l0,-7.98l-5.586,0c-0.499,0.997 -1.397,1.895 -2.394,2.394l0,5.586Z" style="fill-rule:nonzero;"/></g><g><path d="M41.145,68.411l-3.092,0c-0.599,0 -1.097,-0.499 -1.097,-1.097c0,-0.599 0.498,-1.098 1.097,-1.098l3.092,0c0.599,0 1.098,0.499 1.098,1.098c0.099,0.598 -0.399,1.097 -1.098,1.097Z" style="fill-rule:nonzero;"/></g><g><path d="M41.145,74.097l-3.092,0c-0.599,0 -1.097,-0.499 -1.097,-1.097c0,-0.599 0.498,-1.098 1.097,-1.098l3.092,0c0.599,0 1.098,0.499 1.098,1.098c0.099,0.598 -0.399,1.097 -1.098,1.097Z" style="fill-rule:nonzero;"/></g><g><path d="M41.145,79.882l-3.092,0c-0.599,0 -1.097,-0.498 -1.097,-1.097c0,-0.598 0.498,-1.097 1.097,-1.097l3.092,0c0.599,0 1.098,0.499 1.098,1.097c0.099,0.599 -0.399,1.097 -1.098,1.097Z" style="fill-rule:nonzero;"/></g><g><path d="M16.307,68.411l-3.092,0c-0.599,0 -1.098,-0.499 -1.098,-1.097c0,-0.599 0.499,-1.098 1.098,-1.098l3.092,0c0.599,0 1.097,0.499 1.097,1.098c0,0.598 -0.498,1.097 -1.097,1.097Z" style="fill-rule:nonzero;"/></g><g><path d="M16.307,74.097l-3.092,0c-0.599,0 -1.098,-0.499 -1.098,-1.097c0,-0.599 0.499,-1.098 1.098,-1.098l3.092,0c0.599,0 1.097,0.499 1.097,1.098c0,0.598 -0.498,1.097 -1.097,1.097Z" style="fill-rule:nonzero;"/></g><g><path d="M16.307,79.882l-3.092,0c-0.599,0 -1.098,-0.498 -1.098,-1.097c0,-0.598 0.499,-1.097 1.098,-1.097l3.092,0c0.599,0 1.097,0.499 1.097,1.097c0,0.599 -0.498,1.097 -1.097,1.097Z" style="fill-rule:nonzero;"/></g><g><path d="M21.394,63.324c-0.598,0 -1.097,-0.499 -1.097,-1.098l0,-3.092c0,-0.598 0.499,-1.097 1.097,-1.097c0.599,0 1.098,0.499 1.098,1.097l0,3.092c0,0.599 -0.499,1.098 -1.098,1.098Z" style="fill-rule:nonzero;"/></g><g><path d="M27.18,63.324c-0.599,0 -1.097,-0.499 -1.097,-1.098l0,-3.092c0,-0.598 0.498,-1.097 1.097,-1.097c0.598,0 1.097,0.499 1.097,1.097l0,3.092c0,0.599 -0.499,1.098 -1.097,1.098Z" style="fill-rule:nonzero;"/></g><g><path d="M32.866,63.324c-0.599,0 -1.097,-0.499 -1.097,-1.098l0,-3.092c0,-0.598 0.498,-1.097 1.097,-1.097c0.598,0 1.097,0.499 1.097,1.097l0,3.092c0,0.599 -0.499,1.098 -1.097,1.098Z" style="fill-rule:nonzero;"/></g><g><path d="M21.394,88.162c-0.598,0 -1.097,-0.499 -1.097,-1.097l0,-3.093c0,-0.598 0.499,-1.097 1.097,-1.097c0.599,0 1.098,0.499 1.098,1.097l0,3.093c0,0.598 -0.499,1.097 -1.098,1.097Z" style="fill-rule:nonzero;"/></g><g><path d="M27.18,88.162c-0.599,0 -1.097,-0.499 -1.097,-1.097l0,-3.093c0,-0.598 0.498,-1.097 1.097,-1.097c0.598,0 1.097,0.499 1.097,1.097l0,3.093c0,0.598 -0.499,1.097 -1.097,1.097Z" style="fill-rule:nonzero;"/></g><g><path d="M32.866,88.162c-0.599,0 -1.097,-0.499 -1.097,-1.097l0,-3.093c0,-0.598 0.498,-1.097 1.097,-1.097c0.598,0 1.097,0.499 1.097,1.097l0,3.093c0,0.598 -0.499,1.097 -1.097,1.097Z" style="fill-rule:nonzero;"/></g><g><path d="M4.935,84.072c-0.399,0 -0.898,-0.299 -0.997,-0.698c-2.694,-6.584 -2.494,-14.364 0.598,-20.848c2.095,-4.29 4.988,-7.781 8.579,-10.075c1.496,-0.998 2.992,-1.696 4.19,-2.195c0.598,-0.299 1.197,0 1.496,0.599c0.299,0.598 0,1.197 -0.599,1.496c-1.197,0.598 -2.593,1.197 -3.99,2.095c-3.192,2.095 -5.885,5.287 -7.78,9.177c-2.794,5.885 -2.993,12.968 -0.599,19.053c0.2,0.598 0,1.197 -0.598,1.496c0,-0.2 -0.1,-0.1 -0.3,-0.1Z" style="fill-rule:nonzero;"/></g><g><path d="M22.691,53.947c-0.199,0 -0.299,0 -0.499,-0.1c-0.598,-0.299 -0.798,-0.898 -0.498,-1.496l1.296,-2.893l-2.892,-1.297c-0.599,-0.299 -0.798,-0.897 -0.499,-1.496c0.299,-0.598 0.898,-0.798 1.496,-0.499l4.888,2.295l-2.294,4.887c-0.2,0.399 -0.599,0.599 -0.998,0.599Z" style="fill-rule:nonzero;"/></g><g><path d="M49.325,84.87l-2.294,-4.888c-0.3,-0.598 0,-1.197 0.498,-1.496c0.599,-0.299 1.197,0 1.497,0.499l1.396,2.893l2.893,-1.397c0.599,-0.299 1.197,0 1.496,0.499c0.3,0.598 0,1.197 -0.498,1.496l-4.988,2.394Z" style="fill-rule:nonzero;"/></g><g><path d="M8.526,94.646c-0.598,0 -0.997,-0.399 -1.097,-0.998l-0.598,-5.386l5.386,-0.599c0.599,-0.1 1.197,0.399 1.197,0.998c0.1,0.598 -0.399,1.197 -0.997,1.197l-3.093,0.399l0.399,3.092c0.1,0.599 -0.399,1.197 -0.997,1.197c-0.1,0.1 -0.2,0.1 -0.2,0.1Z" style="fill-rule:nonzero;"/></g><g><path d="M27.579,99.733c-3.89,0 -7.681,-0.798 -10.773,-2.494c-1.596,-0.798 -2.893,-1.695 -3.99,-2.493c-0.499,-0.399 -0.599,-1.098 -0.3,-1.596c0.399,-0.499 1.098,-0.599 1.596,-0.3c0.998,0.699 2.295,1.596 3.691,2.394c3.392,1.796 7.482,2.494 11.871,2.195c6.484,-0.499 12.768,-3.89 16.758,-8.978c0.399,-0.499 1.097,-0.598 1.596,-0.199c0.499,0.399 0.599,1.097 0.2,1.596c-4.389,5.586 -11.272,9.277 -18.355,9.875c-0.897,-0.1 -1.596,0 -2.294,0Z" style="fill-rule:nonzero;"/></g><g><path d="M52.317,78.486l-0.099,0c-0.599,-0.1 -1.098,-0.599 -0.998,-1.197l0.1,-0.499c0.199,-1.496 0.299,-3.092 0.199,-4.987c-0.199,-3.791 -1.596,-7.781 -4.089,-11.372c-3.691,-5.387 -9.776,-9.078 -16.16,-9.975c-0.599,-0.1 -0.998,-0.699 -0.998,-1.297c0,-0.599 0.699,-0.998 1.297,-0.998c7.082,0.998 13.666,5.088 17.756,10.973c2.693,3.89 4.289,8.279 4.489,12.469c0.1,1.995 -0.1,3.691 -0.2,5.287l0,0.499c-0.299,0.698 -0.698,1.097 -1.297,1.097Z" style="fill-rule:nonzero;"/></g></g><g><g><path d="M40.247,15.243c-0.299,0 -0.598,-0.1 -0.798,-0.299c-1.496,-1.496 -2.294,-3.392 -2.294,-5.486c0,-2.095 0.798,-3.991 2.294,-5.487c0.399,-0.399 1.098,-0.399 1.596,0c0.4,0.399 0.4,1.097 0,1.596c-0.997,0.998 -1.596,2.394 -1.596,3.891c0,1.496 0.599,2.793 1.596,3.89c0.4,0.399 0.4,1.097 0,1.596c-0.199,0.199 -0.498,0.299 -0.798,0.299Z" style="fill-rule:nonzero;"/></g><g><path d="M36.756,18.735c-0.299,0 -0.598,-0.1 -0.798,-0.3c-2.394,-2.394 -3.691,-5.586 -3.691,-8.977c0,-3.392 1.297,-6.584 3.691,-8.978c0.399,-0.399 1.097,-0.399 1.596,0c0.399,0.399 0.399,1.097 0,1.596c-1.995,1.995 -3.092,4.589 -3.092,7.382c0,2.793 1.097,5.386 3.092,7.381c0.399,0.399 0.399,1.097 0,1.596c-0.299,0.2 -0.499,0.3 -0.798,0.3Z" style="fill-rule:nonzero;"/></g></g><g><g><path d="M54.512,15.243c-0.299,0 -0.598,-0.1 -0.798,-0.299c-0.399,-0.399 -0.399,-1.097 0,-1.596c0.998,-0.998 1.596,-2.394 1.596,-3.89c0,-1.497 -0.598,-2.793 -1.596,-3.891c-0.399,-0.399 -0.399,-1.097 0,-1.596c0.399,-0.399 1.097,-0.399 1.596,0c1.496,1.496 2.294,3.392 2.294,5.487c0,2.094 -0.798,3.99 -2.294,5.486c-0.199,0.199 -0.499,0.299 -0.798,0.299Z" style="fill-rule:nonzero;"/></g><g><path d="M58.003,18.735c-0.299,0 -0.598,-0.1 -0.798,-0.3c-0.399,-0.399 -0.399,-1.097 0,-1.596c1.995,-1.995 3.093,-4.588 3.093,-7.381c0,-2.793 -1.098,-5.387 -3.093,-7.382c-0.399,-0.399 -0.399,-1.097 0,-1.596c0.399,-0.399 1.098,-0.399 1.596,0c2.394,2.394 3.691,5.586 3.691,8.978c0,3.391 -1.297,6.583 -3.691,8.977c-0.199,0.2 -0.498,0.3 -0.798,0.3Z" style="fill-rule:nonzero;"/></g></g><g><g><path d="M95.809,79.882c-0.598,0 -1.097,-0.498 -1.097,-1.097l0,-23.641c0,-4.389 -3.591,-8.08 -8.08,-8.08c-4.389,0 -8.08,3.591 -8.08,8.08l0,7.282c0,0.598 -0.499,1.097 -1.097,1.097c-0.599,0 -1.097,-0.499 -1.097,-1.097l0,-7.282c0,-5.686 4.588,-10.274 10.274,-10.274c5.686,0 10.275,4.588 10.275,10.274l0,23.641c0.099,0.599 -0.399,1.097 -1.098,1.097Z" style="fill-rule:nonzero;"/></g><g><path d="M91.021,44.171c-0.598,0 -1.097,-0.498 -1.097,-1.097l0,-1.397c0,-1.795 -1.397,-3.192 -3.192,-3.192c-1.796,0 -3.192,1.397 -3.192,3.192l0,1.397c0,0.599 -0.499,1.097 -1.097,1.097c-0.599,0 -1.098,-0.498 -1.098,-1.097l0,-1.397c0,-2.992 2.394,-5.486 5.487,-5.486c2.992,0 5.486,2.394 5.486,5.486l0,1.397c-0.199,0.599 -0.698,1.097 -1.297,1.097Z" style="fill-rule:nonzero;"/></g><g><path d="M86.732,38.386c-0.599,0 -1.097,-0.499 -1.097,-1.098l0,-8.08c0,-0.598 0.498,-1.097 1.097,-1.097c0.598,0 1.097,0.499 1.097,1.097l0,8.08c0,0.599 -0.499,1.098 -1.097,1.098Z" style="fill-rule:nonzero;"/></g></g><g><path d="M90.423,99.933c-0.599,0 -1.098,-0.499 -1.098,-1.098l0,-13.466l-23.541,0l0,13.466c0,0.599 -0.499,1.098 -1.097,1.098c-0.599,0 -1.098,-0.499 -1.098,-1.098l0,-14.563c0,-0.599 0.499,-1.098 1.098,-1.098l25.736,0c0.598,0 1.097,0.499 1.097,1.098l0,14.563c0,0.599 -0.499,1.098 -1.097,1.098Z" style="fill-rule:nonzero;"/></g><g><path d="M83.34,85.369c-0.598,0 -1.097,-0.499 -1.097,-1.097l0,-7.482l-9.377,0l0,7.482c0,0.598 -0.498,1.097 -1.097,1.097c-0.598,0 -1.097,-0.499 -1.097,-1.097l0,-8.679c0,-0.598 0.499,-1.097 1.097,-1.097l11.571,0c0.599,0 1.098,0.499 1.098,1.097l0,8.679c0,0.598 -0.499,1.097 -1.098,1.097Z" style="fill-rule:nonzero;"/></g><g><path d="M77.555,76.79c-0.599,0 -1.098,-0.499 -1.098,-1.097l0,-8.08c0,-0.599 0.499,-1.097 1.098,-1.097c0.598,0 1.097,0.498 1.097,1.097l0,8.08c0,0.598 -0.499,1.097 -1.097,1.097Z" style="fill-rule:nonzero;"/></g><g><g><path d="M56.806,43.972c-0.598,0 -1.097,-0.499 -1.097,-1.098l0,-12.768l-4.489,0c-0.598,0 -1.097,-0.499 -1.097,-1.097l0,-8.778l-5.187,0l0,8.778c0,0.598 -0.499,1.097 -1.097,1.097l-4.489,0l0,12.768c0,0.599 -0.499,1.098 -1.098,1.098c-0.598,0 -1.097,-0.499 -1.097,-1.098l0,-13.965c0,-0.598 0.499,-1.097 1.097,-1.097l4.489,0l0,-8.678c0,-0.599 0.499,-1.098 1.098,-1.098l7.381,0c0.599,0 1.097,0.499 1.097,1.098l0,8.778l4.489,0c0.599,0 1.098,0.498 1.098,1.097l0,13.965c0.099,0.499 -0.399,0.998 -1.098,0.998Z" style="fill-rule:nonzero;"/></g><g><path d="M64.487,76.89c-0.598,0 -1.097,-0.499 -1.097,-1.097l0,-31.821l-6.484,0c-0.598,0 -1.097,-0.499 -1.097,-1.098c0,-0.598 0.499,-1.097 1.097,-1.097l7.581,0c0.599,0 1.097,0.499 1.097,1.097l0,32.819c0,0.598 -0.498,1.197 -1.097,1.197Z" style="fill-rule:nonzero;"/></g><g><path d="M47.529,43.972l-12.469,0c-0.598,0 -1.097,-0.499 -1.097,-1.098c0,-0.598 0.499,-1.097 1.097,-1.097l12.469,0c0.599,0 1.098,0.499 1.098,1.097c0,0.599 -0.499,1.098 -1.098,1.098Z" style="fill-rule:nonzero;"/></g><g><path d="M47.529,20.231c-0.598,0 -1.097,-0.499 -1.097,-1.097l0,-9.676c0,-0.599 0.499,-1.098 1.097,-1.098c0.599,0 1.098,0.499 1.098,1.098l0,9.676c0,0.598 -0.499,1.097 -1.098,1.097Z" style="fill-rule:nonzero;"/></g></g><g><path d="M77.555,55.443l-13.068,0c-0.598,0 -1.097,-0.499 -1.097,-1.097c0,-0.599 0.499,-1.097 1.097,-1.097l13.068,0c0.598,0 1.097,0.498 1.097,1.097c0,0.598 -0.499,1.097 -1.097,1.097Z" style="fill-rule:nonzero;"/></g><g><rect x="85.535" y="54.346" width="2.195" height="1.995"/></g><g><rect x="85.535" y="63.024" width="2.195" height="1.995"/></g><g><rect x="55.709" y="50.057" width="2.195" height="1.995"/></g><g><rect x="55.709" y="58.735" width="2.195" height="1.995"/></g><g><rect x="46.432" y="50.057" width="2.195" height="1.995"/></g><g><rect x="81.046" y="91.853" width="2.195" height="1.995"/></g><g><rect x="71.769" y="91.853" width="2.195" height="1.995"/></g></g></svg>