<?xml version="1.0" encoding="UTF-8" standalone="no"?><!DOCTYPE svg PUBLIC "-//W3C//DTD SVG 1.1//EN" "http://www.w3.org/Graphics/SVG/1.1/DTD/svg11.dtd"><svg width="100%" height="100%" viewBox="0 0 100 100" version="1.1" xmlns="http://www.w3.org/2000/svg" xmlns:xlink="http://www.w3.org/1999/xlink" xml:space="preserve" xmlns:serif="http://www.serif.com/" style="fill-rule:evenodd;clip-rule:evenodd;stroke-linejoin:round;stroke-miterlimit:2;"><g><g><g><g><path d="M37.6,27.1c-0.6,0 -1.1,-0.5 -1.1,-1.1l0,-2.2c0,-2.7 -2.2,-4.8 -4.8,-4.8c-2.7,0 -4.8,2.2 -4.8,4.8l0,2.2c0,0.6 -0.5,1.1 -1.1,1.1c-0.6,0 -1.1,-0.5 -1.1,-1.1l0,-2.2c0,-3.9 3.2,-7.1 7.1,-7.1c3.9,0 7.1,3.2 7.1,7.1l0,2.2c-0.1,0.6 -0.6,1.1 -1.3,1.1Z" style="fill-rule:nonzero;"/></g><g><path d="M41.7,45.5l-20.1,0c-0.6,0 -1.1,-0.5 -1.1,-1.1l0,-18.4c0,-0.6 0.5,-1.1 1.1,-1.1l20.1,0c0.6,0 1.1,0.5 1.1,1.1l0,18.4c0.1,0.6 -0.4,1.1 -1.1,1.1Zm-18.9,-2.3l17.8,0l0,-16.1l-17.8,0l0,16.1Z" style="fill-rule:nonzero;"/></g><g><path d="M35.1,37.1c-0.6,0 -1.1,-0.5 -1.1,-1.1c0,-1.2 -1,-2.3 -2.3,-2.3c-1.2,0 -2.3,1 -2.3,2.3c0,0.6 -0.5,1.1 -1.1,1.1c-0.6,0 -1.1,-0.5 -1.1,-1.1c0,-2.5 2,-4.5 4.5,-4.5c2.5,0 4.5,2 4.5,4.5c0,0.6 -0.5,1.1 -1.1,1.1Z" style="fill-rule:nonzero;"/></g></g><g><g><g><path d="M31.7,62.1c-0.3,0 -6.4,-0.3 -12.5,-6.5c-8,-8.1 -12,-22.1 -12,-41.5l0,-0.9l24.5,-5.7l0.3,0.1l24.2,5.6l0,0.9c0,19.4 -4,33.4 -12,41.5c-6.1,6.2 -12.2,6.5 -12.5,6.5Zm-22.2,-47.1c0.2,22.7 6.2,33.7 11.2,38.9c5.2,5.4 10.5,5.9 11,5.9c0.5,0 5.8,-0.5 11,-5.9c5,-5.2 11,-16.2 11.2,-38.9l-22.2,-5.1l-22.2,5.1Z" style="fill-rule:nonzero;"/></g><g><g><path d="M47.3,5.9l-0.3,0l-15.3,-3.6l-15.4,3.6c-0.6,0.1 -1.2,-0.3 -1.4,-0.9c-0.1,-0.6 0.2,-1.2 0.8,-1.4l16,-3.6l15.9,3.7c0.6,0.1 1,0.7 0.8,1.4c-0.1,0.5 -0.6,0.8 -1.1,0.8Z" style="fill-rule:nonzero;"/></g></g></g></g></g><g><g><g><g><g><g><path d="M72.3,90.4l-0.3,0c-7.5,-2 -15.3,-2.8 -23.1,-2.4c-1.8,0.1 -3.6,0.3 -5.3,0.4c-3.4,0.3 -6.9,0.6 -10.4,0.5c-6,-0.2 -12,-2.6 -15.7,-6l-14.9,-14.1c-0.7,-0.7 -1.1,-1.6 -1.1,-2.6c0,-1 0.3,-1.9 1,-2.6c1.7,-1.8 4.1,-2.8 6.6,-2.9c2.5,0 4.9,0.9 6.7,2.6l5.9,5.5c0.5,0.4 0.5,1.1 0,1.6c-0.4,0.5 -1.1,0.5 -1.6,0l-5.9,-5.4c-2.8,-2.7 -7.4,-2.7 -10.1,0.2c-0.3,0.3 -0.4,0.6 -0.4,1c0,0.4 0.2,0.7 0.4,1l14.9,14c3.3,3.1 8.8,5.2 14.2,5.4c3.4,0.1 6.8,-0.2 10.1,-0.5c1.8,-0.2 3.6,-0.3 5.4,-0.4c8,-0.5 16.1,0.4 23.8,2.4c0.6,0.2 1,0.8 0.8,1.4c-0.1,0.5 -0.5,0.9 -1,0.9Z" style="fill-rule:nonzero;"/></g><g><path d="M30.8,77.6c-3.2,0 -5.9,-2.6 -5.9,-5.8c0,-1.6 0.6,-3 1.7,-4.1c1.1,-1.1 2.6,-1.7 4.1,-1.7l4.5,0c4,0 7.9,-0.8 11.5,-2.4l0.7,-0.3c2.4,-1.1 5,-2.1 7.7,-2.8c7.4,-1.9 19.1,-0.4 27.5,9.8c0.4,0.5 0.3,1.2 -0.2,1.6c-0.5,0.4 -1.2,0.3 -1.6,-0.2c-7.2,-8.8 -17.9,-10.9 -25.2,-9.1c-2.5,0.6 -4.8,1.6 -7.3,2.7l-0.7,0.3c-4,1.7 -8.1,2.6 -12.4,2.6l-4.5,0c-1,0 -1.9,0.4 -2.5,1.1c-0.7,0.7 -1,1.6 -1,2.5c0,2 1.6,3.6 3.6,3.6l5.1,0c2.9,0 5.9,-0.3 8.8,-0.9l9.4,-2c0.6,-0.1 1.2,0.3 1.3,0.9c0.1,0.6 -0.3,1.2 -0.9,1.3l-9.4,2c-3,0.7 -6.1,1 -9.3,1l-5,-0.1Z" style="fill-rule:nonzero;"/></g></g></g><g><path d="M97.4,100l-24,0c-1.5,0 -2.9,-0.8 -3.7,-2.1c-0.8,-1.3 -0.8,-2.9 -0.1,-4.2l14.5,-27.8c0.7,-1.4 2.2,-2.3 3.8,-2.3l9.5,0c0.6,0 1.1,0.5 1.1,1.1c0,0.6 -0.5,1.1 -1.1,1.1l-9.5,0c-0.8,0 -1.5,0.4 -1.8,1.1l-14.5,27.9c-0.3,0.6 -0.3,1.4 0.1,2c0.4,0.6 1,1 1.7,1l24,0c0.6,0 1.1,0.5 1.1,1.1c0,0.6 -0.5,1.1 -1.1,1.1Z" style="fill-rule:nonzero;"/></g></g></g></g></g></svg>