<?xml version="1.0" encoding="UTF-8" standalone="no"?><!DOCTYPE svg PUBLIC "-//W3C//DTD SVG 1.1//EN" "http://www.w3.org/Graphics/SVG/1.1/DTD/svg11.dtd"><svg width="100%" height="100%" viewBox="0 0 100 100" version="1.1" xmlns="http://www.w3.org/2000/svg" xmlns:xlink="http://www.w3.org/1999/xlink" xml:space="preserve" xmlns:serif="http://www.serif.com/" style="fill-rule:evenodd;clip-rule:evenodd;stroke-linejoin:round;stroke-miterlimit:2;"><g><path d="M95.3,61.707l-31.8,0c-2.6,0 -4.7,-2.1 -4.7,-4.7l0,-7.9c0,-0.6 0.5,-1.1 1.1,-1.1c0.6,0 1.1,0.5 1.1,1.1l0,7.8c0,1.4 1.1,2.5 2.5,2.5l31.8,0c1.4,0 2.5,-1.1 2.5,-2.5l0,-7.8c0,-0.6 0.5,-1.1 1.1,-1.1c0.6,0 1.1,0.5 1.1,1.1l0,7.8c0,2.7 -2.1,4.8 -4.7,4.8Z" style="fill-rule:nonzero;"/><path d="M79.4,79.707c-0.2,0 -0.5,-0.1 -0.7,-0.2l-6.7,-5.5c-0.3,-0.2 -0.4,-0.5 -0.4,-0.9l0,-12.5c0,-0.6 0.5,-1.1 1.1,-1.1c0.6,0 1.1,0.5 1.1,1.1l0,12l5.6,4.5l5.6,-4.5l0,-12c0,-0.6 0.5,-1.1 1.1,-1.1c0.6,0 1.1,0.5 1.1,1.1l0,12.5c0,0.3 -0.1,0.6 -0.4,0.9l-6.7,5.4c-0.2,0.2 -0.5,0.3 -0.7,0.3Z" style="fill-rule:nonzero;"/><path d="M59.8,38.607c-0.6,0 -1.1,-0.5 -1.1,-1.1l0,-6.2c0,-0.6 0.5,-1.1 1.1,-1.1l6.2,0c0.6,0 1.1,0.5 1.1,1.1c0,0.6 -0.5,1.1 -1.1,1.1l-5,0l0,5.1c0,0.7 -0.5,1.1 -1.2,1.1Z" style="fill-rule:nonzero;"/><path d="M98.9,38.607c-0.6,0 -1.1,-0.5 -1.1,-1.1l0,-5.1l-5.1,0c-0.6,0 -1.1,-0.5 -1.1,-1.1c0,-0.6 0.5,-1.1 1.1,-1.1l6.2,0c0.6,0 1.1,0.5 1.1,1.1l0,6.2c0,0.7 -0.5,1.1 -1.1,1.1Z" style="fill-rule:nonzero;"/><path d="M47.3,86.507c-2.7,0 -5.4,-0.8 -7.9,-2.3c-0.5,-0.3 -0.7,-1 -0.4,-1.5c0.3,-0.5 1,-0.7 1.5,-0.4c2.9,1.7 6,2.4 8.9,1.8c0.6,-0.1 1.2,0.3 1.3,0.9c0.1,0.6 -0.3,1.2 -0.9,1.3c-0.8,0.1 -1.7,0.2 -2.5,0.2Z" style="fill-rule:nonzero;"/><path d="M64.6,93.007c-11.6,0 -17.5,-6.7 -18.2,-13.4c-0.5,-5.1 2.3,-9.2 6.7,-9.8c2.8,-0.3 5.3,1.2 6.2,3.8c1.1,3.1 0,7.6 -4.8,10.7c-0.5,0.3 -1.2,0.2 -1.5,-0.3c-0.3,-0.5 -0.2,-1.2 0.3,-1.5c3.8,-2.4 4.7,-5.9 3.9,-8.1c-0.6,-1.7 -2,-2.5 -3.9,-2.3c-3.7,0.4 -5,4.1 -4.7,7.3c0.9,8.7 10.2,12 18.4,11.3c10.4,-0.9 11.3,-9.5 11.3,-12.1c0,-0.6 0.5,-1.1 1.1,-1.1c0.6,0 1.1,0.5 1.1,1.1c0,6.4 -3.5,13.5 -13.3,14.3c-0.9,0.1 -1.8,0.1 -2.6,0.1Z" style="fill-rule:nonzero;"/><path d="M24.2,49.507l-12.8,0c-0.6,0 -1.1,-0.5 -1.1,-1.1c0,-0.6 0.5,-1.1 1.1,-1.1l11.7,0l0,-1.2c0,-1.7 -1.3,-3.2 -3,-3.4l-8.9,-1.2c-0.6,-0.1 -1,-0.6 -0.9,-1.2c0.1,-0.6 0.6,-1 1.2,-0.9l8.9,1.2c2.8,0.4 4.9,2.8 4.9,5.6l0,2.3c0,0.5 -0.5,1 -1.1,1Z" style="fill-rule:nonzero;"/><path d="M48.1,49.707l-12.6,0c-2.3,0 -4.2,-1.7 -4.5,-4l-0.5,-4.4c0,-0.3 0.1,-0.6 0.3,-0.9c0.2,-0.2 0.5,-0.4 0.8,-0.4l20.4,0c0.3,0 0.6,0.1 0.8,0.4c0.2,0.3 0.3,0.5 0.3,0.9l-0.5,4.4c-0.2,2.3 -2.2,4 -4.5,4Zm-14.9,-4.3c0.1,1.2 1.1,2.1 2.3,2.1l12.6,0c1.2,0 2.2,-0.9 2.3,-2.1l0.4,-3.1l-17.9,0l0.3,3.1Z" style="fill-rule:nonzero;"/><path d="M19.2,59.707l-7.8,0c-0.6,0 -1.1,-0.5 -1.1,-1.1c0,-0.6 0.5,-1.1 1.1,-1.1l7.8,0c0.6,0 1.1,0.5 1.1,1.1c0,0.6 -0.5,1.1 -1.1,1.1Z" style="fill-rule:nonzero;"/><path d="M72.7,26.407c-0.4,0 -0.8,-0.2 -1,-0.6l-6.2,-11.4c-1,-1.9 -3,-3 -5.1,-3l-10.1,0c-0.6,0 -1.1,-0.5 -1.1,-1.1c0,-0.6 0.5,-1.1 1.1,-1.1l10.2,0c2.9,0 5.6,1.6 7,4.2l6.2,11.4c0.3,0.5 0.1,1.2 -0.4,1.5c-0.2,0 -0.4,0.1 -0.6,0.1Z" style="fill-rule:nonzero;"/><path d="M12.4,68.007c-4.4,0 -8,-3.6 -8,-8l0,-21.1c0,-1.5 -0.9,-2.1 -2.4,-2.9c-0.2,-0.1 -0.3,-0.2 -0.5,-0.2c-1.5,-0.7 -1.5,-1.9 -1.5,-4.7l0,-2c0,-1.3 1.1,-2.4 2.4,-2.4l4.2,0c1.4,0 2.6,-0.7 3.3,-1.9l5.7,-10.5c1.7,-3.1 5,-5.1 8.6,-5.1l26,0c0.6,0 1.1,0.5 1.1,1.1c0,0.6 -0.5,1.1 -1.1,1.1l-26,0c-2.8,0 -5.3,1.5 -6.6,3.9l-5.7,10.5c-1,1.9 -3,3.1 -5.2,3.1l-4.3,0c-0.1,0 -0.2,0.1 -0.2,0.2l0,2.1c0,1.2 0,2.2 0.1,2.5l0.1,0c0.1,0 0.1,0 0.2,0.1c0.2,0.1 0.3,0.2 0.5,0.3c1.4,0.8 3.6,2 3.6,4.9l0,21.1c0,3.2 2.6,5.8 5.8,5.8c3.2,0 5.8,-2.6 5.8,-5.8l0,-1.5c0,-0.6 0.5,-1.1 1.1,-1.1l31,0c0.6,0 1.1,0.5 1.1,1.1c0,0.6 -0.5,1.1 -1.1,1.1l-30.1,0l0,0.4c0,4.4 -3.5,7.9 -7.9,7.9Z" style="fill-rule:nonzero;"/></g></svg>